LisuBosa-ExtraLightItalic.ufo
<glyph name="quotedbl" format="2">
  <advance width="297"/>
  <unicode hex="0022"/>
  <outline>
    <contour>
      <point x="129" y="582" type="line"/>
      <point x="204" y="582" type="line"/>
      <point x="148" y="359" type="line"/>
      <point x="96" y="359" type="line"/>
    </contour>
    <contour>
      <point x="273" y="582" type="line"/>
      <point x="348" y="582" type="line"/>
      <point x="292" y="359" type="line"/>
      <point x="240" y="359" type="line"/>
    </contour>
  </outline>
</glyph>
<glyph name="ampersand" format="2">
  <advance width="468"/>
  <unicode hex="0026"/>
  <outline>
    <contour>
      <point x="14" y="141" type="curve" smooth="yes"/>
      <point x="14" y="65"/>
      <point x="73" y="-10"/>
      <point x="170" y="-10" type="curve" smooth="yes"/>
      <point x="263" y="-10"/>
      <point x="332" y="53"/>
      <point x="357" y="122" type="curve" smooth="yes"/>
      <point x="361" y="133"/>
      <point x="365" y="146"/>
      <point x="365" y="155" type="curve" smooth="yes"/>
      <point x="365" y="175"/>
      <point x="352" y="176"/>
      <point x="329" y="176" type="curve" smooth="yes"/>
      <point x="317" y="176"/>
      <point x="307" y="168"/>
      <point x="305" y="161" type="curve" smooth="yes"/>
      <point x="303" y="154"/>
      <point x="293" y="126"/>
      <point x="284" y="113" type="curve" smooth="yes"/>
      <point x="267" y="88"/>
      <point x="233" y="50"/>
      <point x="178" y="50" type="curve" smooth="yes"/>
      <point x="109" y="50"/>
      <point x="75" y="90"/>
      <point x="75" y="152" type="curve" smooth="yes"/>
      <point x="75" y="205"/>
      <point x="119" y="254"/>
      <point x="192" y="254" type="curve" smooth="yes"/>
      <point x="214" y="254"/>
      <point x="224" y="261"/>
      <point x="230" y="274" type="curve" smooth="yes"/>
      <point x="234" y="283"/>
      <point x="235" y="289"/>
      <point x="235" y="295" type="curve" smooth="yes"/>
      <point x="235" y="304"/>
      <point x="232" y="309"/>
      <point x="225" y="314" type="curve" smooth="yes"/>
      <point x="192" y="335"/>
      <point x="169" y="364"/>
      <point x="169" y="394" type="curve" smooth="yes"/>
      <point x="169" y="441"/>
      <point x="200" y="478"/>
      <point x="260" y="478" type="curve" smooth="yes"/>
      <point x="300" y="478"/>
      <point x="329" y="456"/>
      <point x="347" y="425" type="curve" smooth="yes"/>
      <point x="351" y="417"/>
      <point x="356" y="413"/>
      <point x="364" y="413" type="curve" smooth="yes"/>
      <point x="383" y="413"/>
      <point x="407" y="431"/>
      <point x="407" y="444" type="curve" smooth="yes"/>
      <point x="407" y="460"/>
      <point x="388" y="484"/>
      <point x="362" y="505" type="curve" smooth="yes"/>
      <point x="341" y="522"/>
      <point x="308" y="538"/>
      <point x="262" y="538" type="curve" smooth="yes"/>
      <point x="160" y="538"/>
      <point x="108" y="471"/>
      <point x="108" y="399" type="curve" smooth="yes"/>
      <point x="108" y="367"/>
      <point x="130" y="326"/>
      <point x="156" y="302" type="curve"/>
      <point x="71" y="284"/>
      <point x="14" y="221"/>
    </contour>
    <contour>
      <point x="433" y="159" type="curve" smooth="yes"/>
      <point x="438" y="167"/>
      <point x="440" y="174"/>
      <point x="440" y="184" type="curve" smooth="yes"/>
      <point x="440" y="194"/>
      <point x="431" y="202"/>
      <point x="410" y="202" type="curve" smooth="yes"/>
      <point x="384" y="202"/>
      <point x="370" y="201"/>
      <point x="347" y="201" type="curve" smooth="yes"/>
      <point x="322" y="201"/>
      <point x="312" y="200"/>
      <point x="295" y="200" type="curve" smooth="yes"/>
      <point x="281" y="200"/>
      <point x="273" y="200"/>
      <point x="266" y="197" type="curve" smooth="yes"/>
      <point x="259" y="194"/>
      <point x="256" y="189"/>
      <point x="251" y="178" type="curve" smooth="yes"/>
      <point x="248" y="171"/>
      <point x="247" y="166"/>
      <point x="247" y="161" type="curve" smooth="yes"/>
      <point x="247" y="149"/>
      <point x="259" y="143"/>
      <point x="275" y="143" type="curve" smooth="yes"/>
      <point x="301" y="143"/>
      <point x="313" y="145"/>
      <point x="345" y="145" type="curve" smooth="yes"/>
      <point x="362" y="145"/>
      <point x="369" y="143"/>
      <point x="399" y="143" type="curve" smooth="yes"/>
      <point x="417" y="143"/>
      <point x="425" y="146"/>
    </contour>
  </outline>
</glyph>
<glyph name="quotesingle" format="2">
  <advance width="155"/>
  <unicode hex="0027"/>
  <outline>
    <contour>
      <point x="129" y="582" type="line"/>
      <point x="204" y="582" type="line"/>
      <point x="149" y="359" type="line"/>
      <point x="96" y="359" type="line"/>
    </contour>
  </outline>
</glyph>
<glyph name="parenleft" format="2">
  <advance width="288"/>
  <unicode hex="0028"/>
  <guideline x="17" y="173" angle="259.0037"/>
  <guideline x="99" y="173" angle="259.0037"/>
  <outline>
    <contour>
      <point x="189" y="-87" type="line"/>
      <point x="79" y="-17"/>
      <point x="96" y="160"/>
      <point x="127" y="318" type="curve" smooth="yes"/>
      <point x="158" y="475"/>
      <point x="197" y="592"/>
      <point x="335" y="662" type="curve"/>
      <point x="345" y="717" type="line"/>
      <point x="156" y="629"/>
      <point x="86" y="527"/>
      <point x="45" y="318" type="curve" smooth="yes"/>
      <point x="4" y="107"/>
      <point x="25" y="-51"/>
      <point x="178" y="-142" type="curve"/>
    </contour>
  </outline>
</glyph>
<glyph name="parenright" format="2">
  <advance width="288"/>
  <unicode hex="0029"/>
  <guideline x="187" y="140" angle="259.0037"/>
  <outline>
    <contour>
      <point x="292" y="258" type="curve" smooth="yes"/>
      <point x="333" y="469"/>
      <point x="313" y="626"/>
      <point x="160" y="717" type="curve"/>
      <point x="150" y="662" type="line"/>
      <point x="260" y="592"/>
      <point x="241" y="415"/>
      <point x="210" y="258" type="curve" smooth="yes"/>
      <point x="179" y="100"/>
      <point x="141" y="-17"/>
      <point x="3" y="-87" type="curve"/>
      <point x="-8" y="-142" type="line"/>
      <point x="181" y="-51"/>
      <point x="251" y="47"/>
    </contour>
  </outline>
</glyph>
<glyph name="asterisk" format="2">
  <advance width="358"/>
  <unicode hex="002A"/>
  <outline>
    <contour>
      <point x="285" y="553" type="curve" smooth="yes"/>
      <point x="268" y="553"/>
      <point x="253" y="549"/>
      <point x="250" y="534" type="curve" smooth="yes"/>
      <point x="249" y="528"/>
      <point x="246" y="513"/>
      <point x="242" y="495" type="curve" smooth="yes"/>
      <point x="232" y="452"/>
      <point x="229" y="426"/>
      <point x="220" y="397" type="curve" smooth="yes"/>
      <point x="219" y="393"/>
      <point x="218" y="389"/>
      <point x="218" y="387" type="curve" smooth="yes"/>
      <point x="218" y="381"/>
      <point x="220" y="379"/>
      <point x="223" y="379" type="curve" smooth="yes"/>
      <point x="226" y="379"/>
      <point x="249" y="405"/>
      <point x="258" y="418" type="curve" smooth="yes"/>
      <point x="284" y="453"/>
      <point x="313" y="501"/>
      <point x="313" y="529" type="curve" smooth="yes"/>
      <point x="313" y="545"/>
      <point x="301" y="553"/>
    </contour>
    <contour>
      <point x="388" y="390" type="curve" smooth="yes"/>
      <point x="388" y="404"/>
      <point x="379" y="430"/>
      <point x="357" y="430" type="curve" smooth="yes"/>
      <point x="351" y="430"/>
      <point x="336" y="428"/>
      <point x="318" y="425" type="curve" smooth="yes"/>
      <point x="274" y="418"/>
      <point x="248" y="416"/>
      <point x="218" y="416" type="curve" smooth="yes"/>
      <point x="214" y="416"/>
      <point x="208" y="415"/>
      <point x="206" y="414" type="curve" smooth="yes"/>
      <point x="203" y="412"/>
      <point x="202" y="410"/>
      <point x="202" y="408" type="curve" smooth="yes"/>
      <point x="202" y="405"/>
      <point x="234" y="391"/>
      <point x="250" y="386" type="curve" smooth="yes"/>
      <point x="282" y="375"/>
      <point x="322" y="365"/>
      <point x="350" y="365" type="curve" smooth="yes"/>
      <point x="370" y="365"/>
      <point x="388" y="369"/>
    </contour>
    <contour>
      <point x="282" y="263" type="curve" smooth="yes"/>
      <point x="293" y="271"/>
      <point x="302" y="280"/>
      <point x="302" y="291" type="curve" smooth="yes"/>
      <point x="302" y="299"/>
      <point x="289" y="320"/>
      <point x="283" y="335" type="curve" smooth="yes"/>
      <point x="266" y="376"/>
      <point x="254" y="399"/>
      <point x="244" y="428" type="curve" smooth="yes"/>
      <point x="242" y="435"/>
      <point x="239" y="441"/>
      <point x="234" y="441" type="curve" smooth="yes"/>
      <point x="232" y="441"/>
      <point x="225" y="404"/>
      <point x="225" y="388" type="curve" smooth="yes"/>
      <point x="225" y="335"/>
      <point x="229" y="289"/>
      <point x="246" y="266" type="curve" smooth="yes"/>
      <point x="251" y="259"/>
      <point x="257" y="256"/>
      <point x="263" y="256" type="curve" smooth="yes"/>
      <point x="269" y="256"/>
      <point x="276" y="259"/>
    </contour>
    <contour>
      <point x="106" y="312" type="curve" smooth="yes"/>
      <point x="115" y="306"/>
      <point x="124" y="301"/>
      <point x="132" y="301" type="curve" smooth="yes"/>
      <point x="137" y="301"/>
      <point x="142" y="302"/>
      <point x="146" y="306" type="curve" smooth="yes"/>
      <point x="151" y="311"/>
      <point x="161" y="321"/>
      <point x="175" y="333" type="curve" smooth="yes"/>
      <point x="208" y="362"/>
      <point x="226" y="381"/>
      <point x="250" y="400" type="curve" smooth="yes"/>
      <point x="254" y="403"/>
      <point x="260" y="408"/>
      <point x="260" y="411" type="curve" smooth="yes"/>
      <point x="260" y="413"/>
      <point x="259" y="415"/>
      <point x="256" y="415" type="curve" smooth="yes"/>
      <point x="253" y="415"/>
      <point x="222" y="410"/>
      <point x="207" y="405" type="curve" smooth="yes"/>
      <point x="166" y="392"/>
      <point x="114" y="370"/>
      <point x="98" y="348" type="curve" smooth="yes"/>
      <point x="94" y="343"/>
      <point x="93" y="339"/>
      <point x="93" y="334" type="curve" smooth="yes"/>
      <point x="93" y="326"/>
      <point x="98" y="318"/>
    </contour>
    <contour>
      <point x="111" y="488" type="curve" smooth="yes"/>
      <point x="109" y="481"/>
      <point x="108" y="475"/>
      <point x="108" y="469" type="curve" smooth="yes"/>
      <point x="108" y="461"/>
      <point x="110" y="454"/>
      <point x="118" y="449" type="curve" smooth="yes"/>
      <point x="123" y="446"/>
      <point x="137" y="439"/>
      <point x="153" y="430" type="curve" smooth="yes"/>
      <point x="190" y="408"/>
      <point x="212" y="399"/>
      <point x="232" y="384" type="curve" smooth="yes"/>
      <point x="241" y="378"/>
      <point x="249" y="373"/>
      <point x="252" y="373" type="curve" smooth="yes"/>
      <point x="256" y="373"/>
      <point x="257" y="375"/>
      <point x="257" y="378" type="curve" smooth="yes"/>
      <point x="257" y="381"/>
      <point x="240" y="408"/>
      <point x="231" y="421" type="curve" smooth="yes"/>
      <point x="215" y="444"/>
      <point x="162" y="509"/>
      <point x="134" y="509" type="curve" smooth="yes"/>
      <point x="123" y="509"/>
      <point x="115" y="501"/>
    </contour>
  </outline>
</glyph>
<glyph name="zero" format="2">
  <advance width="464"/>
  <unicode hex="0030"/>
  <outline>
    <contour>
      <point x="426" y="233"/>
      <point x="354" y="-8"/>
      <point x="189" y="-8" type="curve" smooth="yes"/>
      <point x="107" y="-8"/>
      <point x="74" y="70"/>
      <point x="74" y="160" type="curve" smooth="yes"/>
      <point x="74" y="297"/>
      <point x="145" y="538"/>
      <point x="310" y="538" type="curve" smooth="yes"/>
      <point x="388" y="538"/>
      <point x="426" y="460"/>
      <point x="426" y="370" type="curve" smooth="yes"/>
    </contour>
    <contour>
      <point x="310" y="53"/>
      <point x="365" y="281"/>
      <point x="365" y="367" type="curve" smooth="yes"/>
      <point x="365" y="429"/>
      <point x="344" y="478"/>
      <point x="297" y="478" type="curve" smooth="yes"/>
      <point x="189" y="478"/>
      <point x="135" y="245"/>
      <point x="135" y="162" type="curve" smooth="yes"/>
      <point x="135" y="95"/>
      <point x="155" y="53"/>
      <point x="203" y="53" type="curve" smooth="yes"/>
    </contour>
  </outline>
</glyph>
<glyph name="one" format="2">
  <advance width="464"/>
  <unicode hex="0031"/>
  <outline>
    <contour>
      <point x="234" y="26" type="curve" smooth="yes"/>
      <point x="227" y="-2"/>
      <point x="216" y="-9"/>
      <point x="193" y="-9" type="curve" smooth="yes"/>
      <point x="171" y="-9"/>
      <point x="159" y="-1"/>
      <point x="159" y="12" type="curve" smooth="yes"/>
      <point x="159" y="24"/>
      <point x="174" y="62"/>
      <point x="184" y="96" type="curve" smooth="yes"/>
      <point x="210" y="183"/>
      <point x="244" y="297"/>
      <point x="276" y="416" type="curve"/>
      <point x="239" y="387"/>
      <point x="207" y="366"/>
      <point x="181" y="352" type="curve" smooth="yes"/>
      <point x="170" y="346"/>
      <point x="158" y="341"/>
      <point x="151" y="341" type="curve" smooth="yes"/>
      <point x="141" y="341"/>
      <point x="134" y="349"/>
      <point x="129" y="355" type="curve" smooth="yes"/>
      <point x="124" y="362"/>
      <point x="121" y="368"/>
      <point x="121" y="375" type="curve" smooth="yes"/>
      <point x="121" y="383"/>
      <point x="127" y="388"/>
      <point x="146" y="399" type="curve" smooth="yes"/>
      <point x="202" y="432"/>
      <point x="256" y="472"/>
      <point x="285" y="501" type="curve" smooth="yes"/>
      <point x="299" y="515"/>
      <point x="307" y="523"/>
      <point x="310" y="525" type="curve" smooth="yes"/>
      <point x="314" y="528"/>
      <point x="324" y="532"/>
      <point x="339" y="532" type="curve" smooth="yes"/>
      <point x="358" y="532"/>
      <point x="364" y="525"/>
      <point x="364" y="516" type="curve" smooth="yes"/>
      <point x="364" y="506"/>
      <point x="360" y="490"/>
      <point x="356" y="475" type="curve" smooth="yes"/>
      <point x="322" y="352"/>
      <point x="285" y="230"/>
      <point x="255" y="113" type="curve" smooth="yes"/>
      <point x="247" y="80"/>
      <point x="240" y="49"/>
    </contour>
  </outline>
</glyph>
<glyph name="three" format="2">
  <advance width="464"/>
  <unicode hex="0033"/>
  <outline>
    <contour>
      <point x="383" y="169" type="curve" smooth="yes"/>
      <point x="383" y="72"/>
      <point x="316" y="-8"/>
      <point x="202" y="-8" type="curve" smooth="yes"/>
      <point x="141" y="-8"/>
      <point x="100" y="21"/>
      <point x="80" y="44" type="curve" smooth="yes"/>
      <point x="60" y="67"/>
      <point x="43" y="99"/>
      <point x="43" y="120" type="curve" smooth="yes"/>
      <point x="43" y="138"/>
      <point x="60" y="154"/>
      <point x="84" y="154" type="curve" smooth="yes"/>
      <point x="97" y="154"/>
      <point x="102" y="142"/>
      <point x="109" y="125" type="curve" smooth="yes"/>
      <point x="128" y="77"/>
      <point x="162" y="53"/>
      <point x="209" y="53" type="curve" smooth="yes"/>
      <point x="264" y="53"/>
      <point x="323" y="101"/>
      <point x="323" y="160" type="curve" smooth="yes"/>
      <point x="323" y="214"/>
      <point x="286" y="246"/>
      <point x="241" y="246" type="curve" smooth="yes"/>
      <point x="225" y="246"/>
      <point x="212" y="247"/>
      <point x="204" y="252" type="curve" smooth="yes"/>
      <point x="194" y="259"/>
      <point x="192" y="266"/>
      <point x="192" y="276" type="curve" smooth="yes"/>
      <point x="192" y="285"/>
      <point x="195" y="293"/>
      <point x="205" y="298" type="curve" smooth="yes"/>
      <point x="211" y="301"/>
      <point x="219" y="303"/>
      <point x="238" y="303" type="curve" smooth="yes"/>
      <point x="307" y="303"/>
      <point x="358" y="353"/>
      <point x="358" y="403" type="curve" smooth="yes"/>
      <point x="358" y="448"/>
      <point x="322" y="478"/>
      <point x="273" y="478" type="curve" smooth="yes"/>
      <point x="248" y="478"/>
      <point x="224" y="466"/>
      <point x="209" y="453" type="curve" smooth="yes"/>
      <point x="186" y="433"/>
      <point x="177" y="411"/>
      <point x="164" y="411" type="curve" smooth="yes"/>
      <point x="152" y="411"/>
      <point x="122" y="426"/>
      <point x="122" y="445" type="curve" smooth="yes"/>
      <point x="122" y="459"/>
      <point x="144" y="487"/>
      <point x="180" y="510" type="curve" smooth="yes"/>
      <point x="211" y="530"/>
      <point x="243" y="538"/>
      <point x="281" y="538" type="curve" smooth="yes"/>
      <point x="367" y="538"/>
      <point x="418" y="479"/>
      <point x="418" y="414" type="curve" smooth="yes"/>
      <point x="418" y="358"/>
      <point x="380" y="302"/>
      <point x="327" y="276" type="curve"/>
      <point x="360" y="255"/>
      <point x="383" y="217"/>
    </contour>
  </outline>
</glyph>
<glyph name="six" format="2">
  <advance width="464"/>
  <unicode hex="0036"/>
  <outline>
    <contour>
      <point x="389" y="192" type="curve" smooth="yes"/>
      <point x="389" y="86"/>
      <point x="316" y="-8"/>
      <point x="203" y="-8" type="curve" smooth="yes"/>
      <point x="111" y="-8"/>
      <point x="63" y="55"/>
      <point x="63" y="153" type="curve" smooth="yes"/>
      <point x="63" y="241"/>
      <point x="99" y="372"/>
      <point x="155" y="446" type="curve" smooth="yes"/>
      <point x="201" y="507"/>
      <point x="246" y="538"/>
      <point x="321" y="538" type="curve" smooth="yes"/>
      <point x="355" y="538"/>
      <point x="389" y="523"/>
      <point x="410" y="506" type="curve" smooth="yes"/>
      <point x="437" y="484"/>
      <point x="449" y="462"/>
      <point x="449" y="443" type="curve" smooth="yes"/>
      <point x="449" y="425"/>
      <point x="421" y="417"/>
      <point x="404" y="417" type="curve" smooth="yes"/>
      <point x="396" y="417"/>
      <point x="390" y="421"/>
      <point x="387" y="428" type="curve" smooth="yes"/>
      <point x="377" y="451"/>
      <point x="358" y="478"/>
      <point x="313" y="478" type="curve" smooth="yes"/>
      <point x="230" y="478"/>
      <point x="170" y="387"/>
      <point x="145" y="290" type="curve"/>
      <point x="183" y="320"/>
      <point x="223" y="332"/>
      <point x="260" y="332" type="curve" smooth="yes"/>
      <point x="334" y="332"/>
      <point x="389" y="268"/>
    </contour>
    <contour>
      <point x="210" y="52" type="curve" smooth="yes"/>
      <point x="274" y="52"/>
      <point x="328" y="120"/>
      <point x="328" y="183" type="curve" smooth="yes"/>
      <point x="328" y="237"/>
      <point x="300" y="275"/>
      <point x="242" y="275" type="curve" smooth="yes"/>
      <point x="172" y="275"/>
      <point x="124" y="209"/>
      <point x="124" y="144" type="curve" smooth="yes"/>
      <point x="124" y="88"/>
      <point x="159" y="52"/>
    </contour>
  </outline>
</glyph>
<glyph name="seven" format="2">
  <advance width="464"/>
  <unicode hex="0037"/>
  <guideline x="16" y="233" angle="71"/>
  <outline>
    <contour>
      <point x="123" y="491" type="curve" smooth="yes"/>
      <point x="132" y="480"/>
      <point x="141" y="474"/>
      <point x="167" y="474" type="curve" smooth="yes"/>
      <point x="217" y="474"/>
      <point x="288" y="475"/>
      <point x="338" y="475" type="curve" smooth="yes"/>
      <point x="383" y="475"/>
      <point x="385" y="476"/>
      <point x="430" y="476" type="curve" smooth="yes"/>
      <point x="439" y="476"/>
      <point x="454" y="478"/>
      <point x="458" y="479" type="curve" smooth="yes"/>
      <point x="462" y="480"/>
      <point x="468" y="482"/>
      <point x="468" y="493" type="curve" smooth="yes"/>
      <point x="468" y="498"/>
      <point x="467" y="511"/>
      <point x="462" y="517" type="curve" smooth="yes"/>
      <point x="457" y="523"/>
      <point x="450" y="527"/>
      <point x="442" y="529" type="curve" smooth="yes"/>
      <point x="435" y="531"/>
      <point x="416" y="532"/>
      <point x="401" y="532" type="curve" smooth="yes"/>
      <point x="392" y="532"/>
      <point x="350" y="532"/>
      <point x="292" y="532" type="curve" smooth="yes"/>
      <point x="234" y="532"/>
      <point x="184" y="533"/>
      <point x="144" y="533" type="curve" smooth="yes"/>
      <point x="122" y="533"/>
      <point x="114" y="525"/>
      <point x="114" y="511" type="curve" smooth="yes"/>
      <point x="114" y="506"/>
      <point x="117" y="498"/>
    </contour>
    <contour>
      <point x="117" y="-8" type="curve" smooth="yes"/>
      <point x="133" y="-8"/>
      <point x="145" y="0"/>
      <point x="148" y="6" type="curve" smooth="yes"/>
      <point x="152" y="14"/>
      <point x="161" y="43"/>
      <point x="170" y="63" type="curve" smooth="yes"/>
      <point x="217" y="167"/>
      <point x="302" y="310"/>
      <point x="438" y="443" type="curve" smooth="yes"/>
      <point x="451" y="456"/>
      <point x="459" y="465"/>
      <point x="463" y="472" type="curve" smooth="yes"/>
      <point x="467" y="478"/>
      <point x="468" y="483"/>
      <point x="468" y="489" type="curve" smooth="yes"/>
      <point x="468" y="505"/>
      <point x="453" y="514"/>
      <point x="435" y="514" type="curve" smooth="yes"/>
      <point x="422" y="514"/>
      <point x="412" y="506"/>
      <point x="404" y="498" type="curve" smooth="yes"/>
      <point x="279" y="373"/>
      <point x="163" y="213"/>
      <point x="92" y="47" type="curve" smooth="yes"/>
      <point x="86" y="34"/>
      <point x="80" y="19"/>
      <point x="80" y="9" type="curve" smooth="yes"/>
      <point x="80" y="0"/>
      <point x="92" y="-8"/>
    </contour>
  </outline>
</glyph>
<glyph name="eight" format="2">
  <advance width="464"/>
  <unicode hex="0038"/>
  <outline>
    <contour>
      <point x="199" y="-8" type="curve" smooth="yes"/>
      <point x="318" y="-8"/>
      <point x="390" y="72"/>
      <point x="390" y="173" type="curve" smooth="yes"/>
      <point x="390" y="213"/>
      <point x="369" y="255"/>
      <point x="329" y="279" type="curve"/>
      <point x="382" y="296"/>
      <point x="433" y="343"/>
      <point x="433" y="408" type="curve" smooth="yes"/>
      <point x="433" y="482"/>
      <point x="371" y="538"/>
      <point x="296" y="538" type="curve" smooth="yes"/>
      <point x="192" y="538"/>
      <point x="131" y="467"/>
      <point x="131" y="390" type="curve" smooth="yes"/>
      <point x="131" y="346"/>
      <point x="151" y="315"/>
      <point x="180" y="295" type="curve"/>
      <point x="101" y="277"/>
      <point x="49" y="215"/>
      <point x="49" y="134" type="curve" smooth="yes"/>
      <point x="49" y="51"/>
      <point x="112" y="-8"/>
    </contour>
    <contour>
      <point x="372" y="402" type="curve" smooth="yes"/>
      <point x="372" y="354"/>
      <point x="324" y="312"/>
      <point x="270" y="312" type="curve" smooth="yes"/>
      <point x="223" y="312"/>
      <point x="192" y="344"/>
      <point x="192" y="390" type="curve" smooth="yes"/>
      <point x="192" y="428"/>
      <point x="226" y="478"/>
      <point x="292" y="478" type="curve" smooth="yes"/>
      <point x="341" y="478"/>
      <point x="372" y="447"/>
    </contour>
    <contour>
      <point x="329" y="163" type="curve" smooth="yes"/>
      <point x="329" y="101"/>
      <point x="277" y="52"/>
      <point x="207" y="52" type="curve" smooth="yes"/>
      <point x="144" y="52"/>
      <point x="110" y="90"/>
      <point x="110" y="145" type="curve" smooth="yes"/>
      <point x="110" y="201"/>
      <point x="164" y="255"/>
      <point x="236" y="255" type="curve" smooth="yes"/>
      <point x="289" y="255"/>
      <point x="329" y="215"/>
    </contour>
  </outline>
</glyph>
<glyph name="less" format="2">
  <advance width="487"/>
  <unicode hex="003C"/>
  <outline>
    <contour>
      <point x="79" y="283" type="line"/>
      <point x="412" y="89" type="line"/>
      <point x="437" y="134" type="line"/>
      <point x="129" y="308" type="line"/>
      <point x="129" y="299" type="line"/>
      <point x="437" y="472" type="line"/>
      <point x="412" y="517" type="line"/>
      <point x="79" y="323" type="line"/>
    </contour>
  </outline>
</glyph>
<glyph name="equal" format="2">
  <advance width="487"/>
  <unicode hex="003D"/>
  <outline>
    <contour>
      <point x="462" y="187" type="line"/>
      <point x="462" y="235" type="line"/>
      <point x="54" y="235" type="line"/>
      <point x="54" y="187" type="line"/>
    </contour>
    <contour>
      <point x="462" y="371" type="line"/>
      <point x="462" y="419" type="line"/>
      <point x="54" y="419" type="line"/>
      <point x="54" y="371" type="line"/>
    </contour>
  </outline>
</glyph>
<glyph name="question" format="2">
  <advance width="423"/>
  <unicode hex="003F"/>
  <outline>
    <contour>
      <point x="104" y="-11" type="curve" smooth="yes"/>
      <point x="135" y="-11"/>
      <point x="165" y="15"/>
      <point x="165" y="50" type="curve" smooth="yes"/>
      <point x="165" y="79"/>
      <point x="145" y="103"/>
      <point x="112" y="103" type="curve" smooth="yes"/>
      <point x="80" y="103"/>
      <point x="50" y="75"/>
      <point x="50" y="40" type="curve" smooth="yes"/>
      <point x="50" y="10"/>
      <point x="72" y="-11"/>
    </contour>
    <contour>
      <point x="387" y="450" type="curve" smooth="yes"/>
      <point x="387" y="526"/>
      <point x="326" y="570"/>
      <point x="261" y="570" type="curve" smooth="yes"/>
      <point x="226" y="570"/>
      <point x="191" y="558"/>
      <point x="165" y="539" type="curve" smooth="yes"/>
      <point x="136" y="518"/>
      <point x="126" y="503"/>
      <point x="126" y="492" type="curve" smooth="yes"/>
      <point x="126" y="473"/>
      <point x="148" y="455"/>
      <point x="156" y="455" type="curve" smooth="yes"/>
      <point x="163" y="455"/>
      <point x="170" y="461"/>
      <point x="178" y="469" type="curve" smooth="yes"/>
      <point x="183" y="474"/>
      <point x="186" y="477"/>
      <point x="193" y="483" type="curve" smooth="yes"/>
      <point x="206" y="494"/>
      <point x="231" y="508"/>
      <point x="260" y="508" type="curve" smooth="yes"/>
      <point x="298" y="508"/>
      <point x="324" y="488"/>
      <point x="324" y="446" type="curve" smooth="yes"/>
      <point x="324" y="410"/>
      <point x="289" y="374"/>
      <point x="247" y="347" type="curve" smooth="yes"/>
      <point x="204" y="319"/>
      <point x="182" y="300"/>
      <point x="162" y="278" type="curve" smooth="yes"/>
      <point x="149" y="264"/>
      <point x="131" y="231"/>
      <point x="131" y="218" type="curve" smooth="yes"/>
      <point x="131" y="202"/>
      <point x="159" y="194"/>
      <point x="170" y="194" type="curve" smooth="yes"/>
      <point x="182" y="194"/>
      <point x="189" y="202"/>
      <point x="194" y="212" type="curve" smooth="yes"/>
      <point x="200" y="223"/>
      <point x="209" y="239"/>
      <point x="219" y="249" type="curve" smooth="yes"/>
      <point x="232" y="262"/>
      <point x="248" y="275"/>
      <point x="296" y="308" type="curve" smooth="yes"/>
      <point x="345" y="342"/>
      <point x="387" y="383"/>
    </contour>
  </outline>
</glyph>
<glyph name="C" format="2">
  <advance width="545"/>
  <unicode hex="0043"/>
  <anchor x="403" y="635" name="aboveUC"/>
  <anchor x="314" y="0" name="baseLC"/>
  <anchor x="293" y="-20" name="belowLC"/>
  <outline>
    <contour>
      <point x="303" y="-13" type="curve" smooth="yes"/>
      <point x="381" y="-13"/>
      <point x="433" y="6"/>
      <point x="482" y="27" type="curve"/>
      <point x="507" y="161" type="line"/>
      <point x="453" y="161" type="line"/>
      <point x="409" y="27" type="line"/>
      <point x="460" y="65" type="line"/>
      <point x="422" y="46"/>
      <point x="379" y="32"/>
      <point x="333" y="32" type="curve" smooth="yes"/>
      <point x="227" y="32"/>
      <point x="136" y="106"/>
      <point x="136" y="262" type="curve" smooth="yes"/>
      <point x="136" y="437"/>
      <point x="247" y="584"/>
      <point x="395" y="584" type="curve" smooth="yes"/>
      <point x="440" y="584"/>
      <point x="492" y="570"/>
      <point x="524" y="544" type="curve"/>
      <point x="486" y="581" type="line"/>
      <point x="486" y="453" type="line"/>
      <point x="538" y="453" type="line"/>
      <point x="559" y="581" type="line"/>
      <point x="502" y="618"/>
      <point x="453" y="630"/>
      <point x="404" y="630" type="curve" smooth="yes"/>
      <point x="213" y="630"/>
      <point x="53" y="461"/>
      <point x="53" y="258" type="curve" smooth="yes"/>
      <point x="53" y="95"/>
      <point x="149" y="-13"/>
    </contour>
  </outline>
</glyph>
<glyph name="J" format="2">
  <advance width="371"/>
  <unicode hex="004A"/>
  <anchor x="298" y="635" name="aboveUC"/>
  <anchor x="87" y="-58" name="belowLC"/>
  <outline>
    <contour>
      <point x="-24" y="6" type="curve"/>
      <point x="-20" y="-25"/>
      <point x="16" y="-40"/>
      <point x="58" y="-40" type="curve" smooth="yes"/>
      <point x="121" y="-40"/>
      <point x="199" y="4"/>
      <point x="237" y="92" type="curve" smooth="yes"/>
      <point x="253" y="127"/>
      <point x="264" y="172"/>
      <point x="276" y="240" type="curve" smooth="yes"/>
      <point x="338" y="616" type="line"/>
      <point x="257" y="616" type="line"/>
      <point x="244" y="521"/>
      <point x="230" y="425"/>
      <point x="215" y="331" type="curve" smooth="yes"/>
      <point x="196" y="215"/>
      <point x="192" y="172"/>
      <point x="183" y="128" type="curve" smooth="yes"/>
      <point x="168" y="59"/>
      <point x="133" y="15"/>
      <point x="83" y="-8" type="curve"/>
      <point x="126" y="0" type="line"/>
      <point x="77" y="36"/>
      <point x="57" y="47"/>
      <point x="36" y="47" type="curve" smooth="yes"/>
      <point x="7" y="47"/>
      <point x="-17" y="34"/>
    </contour>
    <contour>
      <point x="162" y="579" type="line"/>
      <point x="278" y="565" type="line"/>
      <point x="296" y="565" type="line"/>
      <point x="414" y="579" type="line"/>
      <point x="422" y="616" type="line"/>
      <point x="170" y="616" type="line"/>
    </contour>
  </outline>
</glyph>
<glyph name="K" format="2">
  <advance width="609"/>
  <unicode hex="004B"/>
  <anchor x="398" y="635" name="aboveUC"/>
  <anchor x="305" y="-20" name="belowLC"/>
  <outline>
    <contour>
      <point x="14" y="0" type="line"/>
      <point x="257" y="0" type="line"/>
      <point x="264" y="36" type="line"/>
      <point x="155" y="50" type="line"/>
      <point x="138" y="50" type="line"/>
      <point x="22" y="36" type="line"/>
    </contour>
    <contour>
      <point x="92" y="0" type="line"/>
      <point x="173" y="0" type="line"/>
      <point x="188" y="94"/>
      <point x="205" y="190"/>
      <point x="222" y="285" type="curve" smooth="yes"/>
      <point x="285" y="616" type="line"/>
      <point x="204" y="616" type="line"/>
      <point x="189" y="521"/>
      <point x="172" y="425"/>
      <point x="155" y="331" type="curve" smooth="yes"/>
    </contour>
    <contour>
      <point x="112" y="579" type="line"/>
      <point x="223" y="565" type="line"/>
      <point x="241" y="565" type="line"/>
      <point x="355" y="579" type="line"/>
      <point x="362" y="616" type="line"/>
      <point x="119" y="616" type="line"/>
    </contour>
    <contour>
      <point x="164" y="207" type="line"/>
      <point x="610" y="616" type="line"/>
      <point x="555" y="616" type="line"/>
      <point x="172" y="262" type="line"/>
    </contour>
    <contour>
      <point x="464" y="0" type="line"/>
      <point x="548" y="0" type="line"/>
      <point x="339" y="389" type="line"/>
      <point x="286" y="335" type="line"/>
    </contour>
    <contour>
      <point x="364" y="0" type="line"/>
      <point x="594" y="0" type="line"/>
      <point x="598" y="36" type="line"/>
      <point x="495" y="50" type="line"/>
      <point x="478" y="50" type="line"/>
      <point x="368" y="36" type="line"/>
    </contour>
    <contour>
      <point x="445" y="579" type="line"/>
      <point x="526" y="565" type="line"/>
      <point x="543" y="565" type="line"/>
      <point x="647" y="579" type="line"/>
      <point x="655" y="616" type="line"/>
      <point x="452" y="616" type="line"/>
    </contour>
  </outline>
</glyph>
<glyph name="L" format="2">
  <advance width="522"/>
  <unicode hex="004C"/>
  <anchor x="238" y="635" name="aboveUC"/>
  <anchor x="272" y="-20" name="belowLC"/>
  <outline>
    <contour>
      <point x="14" y="0" type="line"/>
      <point x="130" y="0" type="line"/>
      <point x="139" y="50" type="line"/>
      <point x="132" y="50" type="line"/>
      <point x="22" y="36" type="line"/>
    </contour>
    <contour>
      <point x="92" y="0" type="line"/>
      <point x="173" y="0" type="line"/>
      <point x="188" y="94"/>
      <point x="205" y="190"/>
      <point x="222" y="285" type="curve" smooth="yes"/>
      <point x="285" y="616" type="line"/>
      <point x="204" y="616" type="line"/>
      <point x="189" y="521"/>
      <point x="172" y="425"/>
      <point x="155" y="331" type="curve" smooth="yes"/>
    </contour>
    <contour>
      <point x="112" y="579" type="line"/>
      <point x="223" y="565" type="line"/>
      <point x="250" y="565" type="line"/>
      <point x="364" y="579" type="line"/>
      <point x="371" y="616" type="line"/>
      <point x="119" y="616" type="line"/>
    </contour>
    <contour>
      <point x="130" y="0" type="line"/>
      <point x="479" y="0" type="line"/>
      <point x="512" y="172" type="line"/>
      <point x="461" y="172" type="line"/>
      <point x="401" y="0" type="line"/>
      <point x="458" y="46" type="line"/>
      <point x="138" y="46" type="line"/>
    </contour>
  </outline>
</glyph>
<glyph name="O" format="2">
  <advance width="607"/>
  <unicode hex="004F"/>
  <anchor x="383" y="634" name="aboveUC"/>
  <anchor x="279" y="-19" name="belowLC"/>
  <anchor x="522" y="621" name="hornLC"/>
  <anchor x="360" y="0" name="ogonek"/>
  <outline>
    <contour>
      <point x="280" y="-12" type="curve" smooth="yes"/>
      <point x="472" y="-12"/>
      <point x="600" y="164"/>
      <point x="600" y="376" type="curve" smooth="yes"/>
      <point x="600" y="530"/>
      <point x="515" y="629"/>
      <point x="379" y="629" type="curve" smooth="yes"/>
      <point x="191" y="629"/>
      <point x="61" y="451"/>
      <point x="61" y="238" type="curve" smooth="yes"/>
      <point x="61" y="82"/>
      <point x="148" y="-12"/>
    </contour>
    <contour>
      <point x="293" y="33" type="curve" smooth="yes"/>
      <point x="188" y="33"/>
      <point x="141" y="115"/>
      <point x="141" y="237" type="curve" smooth="yes"/>
      <point x="141" y="434"/>
      <point x="232" y="583"/>
      <point x="368" y="583" type="curve" smooth="yes"/>
      <point x="474" y="583"/>
      <point x="520" y="503"/>
      <point x="520" y="377" type="curve" smooth="yes"/>
      <point x="520" y="181"/>
      <point x="429" y="33"/>
    </contour>
  </outline>
</glyph>
<glyph name="P" format="2">
  <advance width="517"/>
  <unicode hex="0050"/>
  <anchor x="341" y="635" name="aboveUC"/>
  <anchor x="138" y="-20" name="belowLC"/>
  <outline>
    <contour>
      <point x="14" y="0" type="line"/>
      <point x="262" y="0" type="line"/>
      <point x="269" y="36" type="line"/>
      <point x="155" y="50" type="line"/>
      <point x="138" y="50" type="line"/>
      <point x="22" y="36" type="line"/>
    </contour>
    <contour>
      <point x="92" y="0" type="line"/>
      <point x="173" y="0" type="line"/>
      <point x="188" y="94"/>
      <point x="205" y="190"/>
      <point x="222" y="285" type="curve" smooth="yes"/>
      <point x="285" y="616" type="line"/>
      <point x="204" y="616" type="line"/>
      <point x="189" y="521"/>
      <point x="172" y="425"/>
      <point x="155" y="331" type="curve" smooth="yes"/>
    </contour>
    <contour>
      <point x="112" y="579" type="line"/>
      <point x="223" y="565" type="line"/>
      <point x="237" y="565" type="line"/>
      <point x="247" y="616" type="line"/>
      <point x="119" y="616" type="line"/>
    </contour>
    <contour>
      <point x="172" y="239" type="line"/>
      <point x="278" y="239" type="line" smooth="yes"/>
      <point x="444" y="239"/>
      <point x="537" y="330"/>
      <point x="537" y="455" type="curve" smooth="yes"/>
      <point x="537" y="550"/>
      <point x="468" y="616"/>
      <point x="329" y="616" type="curve" smooth="yes"/>
      <point x="247" y="616" type="line"/>
      <point x="239" y="574" type="line"/>
      <point x="315" y="574" type="line" smooth="yes"/>
      <point x="404" y="574"/>
      <point x="453" y="529"/>
      <point x="453" y="444" type="curve" smooth="yes"/>
      <point x="453" y="348"/>
      <point x="395" y="281"/>
      <point x="276" y="281" type="curve" smooth="yes"/>
      <point x="181" y="281" type="line"/>
    </contour>
  </outline>
</glyph>
<glyph name="bracketleft" format="2">
  <advance width="297"/>
  <unicode hex="005B"/>
  <outline>
    <contour>
      <point x="140" y="667" type="line"/>
      <point x="-13" y="-129" type="line"/>
      <point x="179" y="-129" type="line"/>
      <point x="190" y="-69" type="line"/>
      <point x="69" y="-69" type="line"/>
      <point x="199" y="609" type="line"/>
      <point x="321" y="609" type="line"/>
      <point x="333" y="667" type="line"/>
    </contour>
  </outline>
</glyph>
<glyph name="backslash" format="2">
  <advance width="286"/>
  <unicode hex="005C"/>
  <outline>
    <contour>
      <point x="236" y="-147" type="line"/>
      <point x="154" y="653" type="line"/>
      <point x="103" y="653" type="line"/>
      <point x="184" y="-147" type="line"/>
    </contour>
  </outline>
</glyph>
<glyph name="i" format="2">
  <advance width="280"/>
  <unicode hex="0069"/>
  <anchor x="220" y="677" name="aboveLC"/>
  <anchor x="126" y="-20" name="belowLC"/>
  <anchor x="166" y="0" name="ogonek"/>
  <outline>
    <contour>
      <point x="83" y="34" type="curve" smooth="yes"/>
      <point x="83" y="3"/>
      <point x="107" y="-11"/>
      <point x="132" y="-11" type="curve" smooth="yes"/>
      <point x="197" y="-11"/>
      <point x="244" y="45"/>
      <point x="286" y="100" type="curve"/>
      <point x="264" y="117" type="line"/>
      <point x="226" y="73"/>
      <point x="196" y="50"/>
      <point x="174" y="50" type="curve" smooth="yes"/>
      <point x="164" y="50"/>
      <point x="154" y="57"/>
      <point x="154" y="70" type="curve" smooth="yes"/>
      <point x="154" y="81"/>
      <point x="158" y="101"/>
      <point x="162" y="124" type="curve" smooth="yes"/>
      <point x="228" y="438" type="line"/>
      <point x="216" y="448" type="line"/>
      <point x="60" y="401" type="line"/>
      <point x="57" y="374" type="line"/>
      <point x="167" y="368" type="line"/>
      <point x="151" y="380" type="line"/>
      <point x="92" y="101" type="line" smooth="yes"/>
      <point x="84" y="63"/>
      <point x="83" y="47"/>
    </contour>
    <contour>
      <point x="218" y="574" type="curve" smooth="yes"/>
      <point x="245" y="574"/>
      <point x="271" y="602"/>
      <point x="271" y="631" type="curve" smooth="yes"/>
      <point x="271" y="664"/>
      <point x="251" y="684"/>
      <point x="221" y="684" type="curve" smooth="yes"/>
      <point x="194" y="684"/>
      <point x="168" y="657"/>
      <point x="168" y="627" type="curve" smooth="yes"/>
      <point x="168" y="594"/>
      <point x="188" y="574"/>
    </contour>
  </outline>
</glyph>
<glyph name="j" format="2">
  <advance width="229"/>
  <unicode hex="006A"/>
  <anchor x="220" y="677" name="aboveLC"/>
  <anchor x="-19" y="-230" name="belowLC"/>
  <outline>
    <contour>
      <point x="218" y="574" type="curve" smooth="yes"/>
      <point x="245" y="574"/>
      <point x="271" y="602"/>
      <point x="271" y="631" type="curve" smooth="yes"/>
      <point x="271" y="664"/>
      <point x="251" y="684"/>
      <point x="221" y="684" type="curve" smooth="yes"/>
      <point x="194" y="684"/>
      <point x="168" y="657"/>
      <point x="168" y="627" type="curve" smooth="yes"/>
      <point x="168" y="594"/>
      <point x="188" y="574"/>
    </contour>
    <contour>
      <point x="-57" y="-228" type="line"/>
      <point x="-25" y="-222"/>
      <point x="4" y="-208"/>
      <point x="34" y="-184" type="curve" smooth="yes"/>
      <point x="92" y="-135"/>
      <point x="128" y="-65"/>
      <point x="146" y="20" type="curve" smooth="yes"/>
      <point x="227" y="438" type="line"/>
      <point x="215" y="448" type="line"/>
      <point x="60" y="401" type="line"/>
      <point x="57" y="374" type="line"/>
      <point x="168" y="368" type="line"/>
      <point x="151" y="381" type="line"/>
      <point x="86" y="44" type="line" smooth="yes"/>
      <point x="66" y="-67"/>
      <point x="41" y="-113"/>
      <point x="10" y="-153" type="curve" smooth="yes"/>
      <point x="-8" y="-175"/>
      <point x="-31" y="-188"/>
      <point x="-64" y="-202" type="curve"/>
    </contour>
  </outline>
</glyph>
<glyph name="l" format="2">
  <advance width="255"/>
  <unicode hex="006C"/>
  <anchor x="218" y="679" name="aboveLC"/>
  <anchor x="119" y="-20" name="belowLC"/>
  <outline>
    <contour>
      <point x="119" y="-11" type="curve" smooth="yes"/>
      <point x="184" y="-11"/>
      <point x="230" y="46"/>
      <point x="269" y="100" type="curve"/>
      <point x="248" y="117" type="line"/>
      <point x="211" y="75"/>
      <point x="180" y="50"/>
      <point x="161" y="50" type="curve" smooth="yes"/>
      <point x="149" y="50"/>
      <point x="138" y="57"/>
      <point x="138" y="72" type="curve" smooth="yes"/>
      <point x="138" y="81"/>
      <point x="140" y="101"/>
      <point x="146" y="126" type="curve" smooth="yes"/>
      <point x="256" y="674" type="line"/>
      <point x="246" y="681" type="line"/>
      <point x="89" y="635" type="line"/>
      <point x="85" y="609" type="line"/>
      <point x="193" y="601" type="line"/>
      <point x="176" y="630" type="line"/>
      <point x="168" y="566"/>
      <point x="156" y="503"/>
      <point x="143" y="439" type="curve" smooth="yes"/>
      <point x="76" y="101" type="line" smooth="yes"/>
      <point x="70" y="69"/>
      <point x="68" y="53"/>
      <point x="68" y="41" type="curve" smooth="yes"/>
      <point x="68" y="5"/>
      <point x="91" y="-11"/>
    </contour>
  </outline>
</glyph>
<glyph name="o" format="2">
  <advance width="448"/>
  <unicode hex="006F"/>
  <anchor x="291" y="465" name="aboveLC"/>
  <anchor x="185" y="-20" name="belowLC"/>
  <anchor x="382" y="441" name="hornLC"/>
  <anchor x="253" y="0" name="ogonek"/>
  <outline>
    <contour>
      <point x="202" y="-11" type="curve" smooth="yes"/>
      <point x="331" y="-11"/>
      <point x="437" y="126"/>
      <point x="437" y="287" type="curve" smooth="yes"/>
      <point x="437" y="391"/>
      <point x="375" y="448"/>
      <point x="288" y="448" type="curve" smooth="yes"/>
      <point x="159" y="448"/>
      <point x="49" y="315"/>
      <point x="49" y="149" type="curve" smooth="yes"/>
      <point x="49" y="45"/>
      <point x="117" y="-11"/>
    </contour>
    <contour>
      <point x="212" y="24" type="curve" smooth="yes"/>
      <point x="161" y="24"/>
      <point x="123" y="64"/>
      <point x="123" y="161" type="curve" smooth="yes"/>
      <point x="123" y="299"/>
      <point x="191" y="411"/>
      <point x="278" y="411" type="curve" smooth="yes"/>
      <point x="329" y="411"/>
      <point x="364" y="372"/>
      <point x="364" y="272" type="curve" smooth="yes"/>
      <point x="364" y="149"/>
      <point x="303" y="24"/>
    </contour>
  </outline>
</glyph>
<glyph name="logicalnot" format="2">
  <advance width="487"/>
  <unicode hex="00AC"/>
  <outline>
    <contour>
      <point x="49" y="312" type="line"/>
      <point x="420" y="312" type="line"/>
      <point x="405" y="330" type="line"/>
      <point x="405" y="153" type="line"/>
      <point x="458" y="153" type="line"/>
      <point x="458" y="361" type="line"/>
      <point x="49" y="361" type="line"/>
    </contour>
  </outline>
</glyph>
<glyph name="macron" format="2">
  <advance width="368"/>
  <unicode hex="00AF"/>
  <anchor x="255" y="478" name="_aboveLC"/>
  <anchor x="287" y="629" name="aboveLC"/>
  <outline>
    <contour>
      <point x="159" y="563" type="line"/>
      <point x="379" y="563" type="line"/>
      <point x="391" y="620" type="line"/>
      <point x="170" y="620" type="line"/>
    </contour>
  </outline>
</glyph>
<glyph name="plusminus" format="2">
  <advance width="487"/>
  <unicode hex="00B1"/>
  <outline>
    <contour>
      <point x="232" y="102" type="line"/>
      <point x="284" y="102" type="line"/>
      <point x="284" y="500" type="line"/>
      <point x="232" y="500" type="line"/>
    </contour>
    <contour>
      <point x="462" y="279" type="line"/>
      <point x="462" y="327" type="line"/>
      <point x="54" y="327" type="line"/>
      <point x="54" y="279" type="line"/>
    </contour>
    <contour>
      <point x="462" y="0" type="line"/>
      <point x="462" y="47" type="line"/>
      <point x="54" y="47" type="line"/>
      <point x="54" y="0" type="line"/>
    </contour>
  </outline>
</glyph>
<glyph name="two.sups" format="2">
  <advance width="318"/>
  <unicode hex="00B2"/>
  <outline>
    <contour>
      <point x="92" y="391" type="line"/>
      <point x="323" y="391" type="line"/>
      <point x="335" y="448" type="line"/>
      <point x="142" y="448" type="line"/>
      <point x="146" y="442" type="line"/>
      <point x="315" y="584"/>
      <point x="368" y="619"/>
      <point x="368" y="678" type="curve" smooth="yes"/>
      <point x="368" y="728"/>
      <point x="336" y="765"/>
      <point x="267" y="765" type="curve" smooth="yes"/>
      <point x="200" y="765"/>
      <point x="153" y="739"/>
      <point x="137" y="668" type="curve"/>
      <point x="138" y="650"/>
      <point x="149" y="639"/>
      <point x="165" y="639" type="curve" smooth="yes"/>
      <point x="185" y="639"/>
      <point x="197" y="650"/>
      <point x="200" y="689" type="curve" smooth="yes"/>
      <point x="205" y="746" type="line"/>
      <point x="178" y="709" type="line"/>
      <point x="196" y="728"/>
      <point x="219" y="736"/>
      <point x="243" y="736" type="curve" smooth="yes"/>
      <point x="281" y="736"/>
      <point x="302" y="715"/>
      <point x="302" y="675" type="curve" smooth="yes"/>
      <point x="302" y="631"/>
      <point x="274" y="591"/>
      <point x="101" y="435" type="curve"/>
    </contour>
  </outline>
</glyph>
<glyph name="ordmasculine" format="2">
  <advance width="317"/>
  <unicode hex="00BA"/>
  <outline>
    <contour>
      <point x="215" y="382" type="curve" smooth="yes"/>
      <point x="306" y="382"/>
      <point x="379" y="475"/>
      <point x="379" y="579" type="curve" smooth="yes"/>
      <point x="379" y="653"/>
      <point x="333" y="690"/>
      <point x="273" y="690" type="curve" smooth="yes"/>
      <point x="181" y="690"/>
      <point x="106" y="599"/>
      <point x="106" y="494" type="curve" smooth="yes"/>
      <point x="106" y="419"/>
      <point x="155" y="382"/>
    </contour>
    <contour>
      <point x="222" y="411" type="curve" smooth="yes"/>
      <point x="189" y="411"/>
      <point x="163" y="431"/>
      <point x="163" y="490" type="curve" smooth="yes"/>
      <point x="163" y="576"/>
      <point x="207" y="661"/>
      <point x="265" y="661" type="curve" smooth="yes"/>
      <point x="298" y="661"/>
      <point x="322" y="641"/>
      <point x="322" y="582" type="curve" smooth="yes"/>
      <point x="322" y="499"/>
      <point x="282" y="411"/>
    </contour>
  </outline>
</glyph>
<glyph name="onequarter" format="2">
  <advance width="800"/>
  <unicode hex="00BC"/>
  <outline>
    <contour>
      <point x="230" y="-13" type="line"/>
      <point x="687" y="589" type="line"/>
      <point x="656" y="612" type="line"/>
      <point x="199" y="9" type="line"/>
    </contour>
    <contour>
      <point x="283" y="233" type="line"/>
      <point x="287" y="257" type="line"/>
      <point x="199" y="267" type="line"/>
      <point x="161" y="267" type="line"/>
      <point x="73" y="257" type="line"/>
      <point x="68" y="233" type="line"/>
    </contour>
    <contour>
      <point x="202" y="233" type="line"/>
      <point x="262" y="519" type="line"/>
      <point x="281" y="601" type="line"/>
      <point x="275" y="607" type="line"/>
      <point x="139" y="575" type="line"/>
      <point x="134" y="551" type="line"/>
      <point x="223" y="556" type="line"/>
      <point x="209" y="572" type="line"/>
      <point x="141" y="233" type="line"/>
    </contour>
    <contour>
      <point x="749" y="91" type="line"/>
      <point x="758" y="134" type="line"/>
      <point x="507" y="134" type="line"/>
      <point x="508" y="125" type="line"/>
      <point x="692" y="325" type="line"/>
      <point x="680" y="325" type="line"/>
      <point x="611" y="-11" type="line"/>
      <point x="667" y="-11" type="line"/>
      <point x="745" y="369" type="line"/>
      <point x="700" y="369" type="line"/>
      <point x="481" y="132" type="line"/>
      <point x="472" y="91" type="line"/>
    </contour>
  </outline>
</glyph>
<glyph name="Eacute" format="2">
  <advance width="540"/>
  <unicode hex="00C9"/>
  <anchor x="430" y="797" name="aboveUC"/>
  <anchor x="283" y="-20" name="belowLC"/>
  <anchor x="391" y="0" name="ogonek"/>
  <outline>
    <contour>
      <point x="14" y="0" type="line"/>
      <point x="130" y="0" type="line"/>
      <point x="139" y="50" type="line"/>
      <point x="134" y="50" type="line"/>
      <point x="22" y="36" type="line"/>
    </contour>
    <contour>
      <point x="92" y="0" type="line"/>
      <point x="173" y="0" type="line"/>
      <point x="188" y="94"/>
      <point x="205" y="190"/>
      <point x="222" y="285" type="curve" smooth="yes"/>
      <point x="285" y="616" type="line"/>
      <point x="204" y="616" type="line"/>
      <point x="189" y="521"/>
      <point x="172" y="425"/>
      <point x="155" y="331" type="curve" smooth="yes"/>
    </contour>
    <contour>
      <point x="112" y="579" type="line"/>
      <point x="223" y="565" type="line"/>
      <point x="234" y="565" type="line"/>
      <point x="244" y="616" type="line"/>
      <point x="119" y="616" type="line"/>
    </contour>
    <contour>
      <point x="130" y="0" type="line"/>
      <point x="473" y="0" type="line"/>
      <point x="509" y="163" type="line"/>
      <point x="463" y="163" type="line"/>
      <point x="405" y="0" type="line"/>
      <point x="456" y="46" type="line"/>
      <point x="139" y="46" type="line"/>
    </contour>
    <contour>
      <point x="187" y="293" type="line"/>
      <point x="394" y="293" type="line"/>
      <point x="402" y="335" type="line"/>
      <point x="195" y="335" type="line"/>
    </contour>
    <contour>
      <point x="235" y="570" type="line"/>
      <point x="506" y="570" type="line"/>
      <point x="476" y="616" type="line"/>
      <point x="476" y="452" type="line"/>
      <point x="522" y="452" type="line"/>
      <point x="544" y="616" type="line"/>
      <point x="244" y="616" type="line"/>
    </contour>
    <contour>
      <point x="365" y="206" type="line"/>
      <point x="403" y="206" type="line"/>
      <point x="445" y="424" type="line"/>
      <point x="406" y="424" type="line"/>
      <point x="371" y="326" type="line"/>
      <point x="368" y="308" type="line"/>
    </contour>
    <contour>
      <point x="340" y="676" type="curve"/>
      <point x="352" y="655" type="line"/>
      <point x="398" y="676"/>
      <point x="444" y="696"/>
      <point x="490" y="716" type="curve" smooth="yes"/>
      <point x="534" y="736"/>
      <point x="540" y="750"/>
      <point x="540" y="766" type="curve" smooth="yes"/>
      <point x="540" y="785"/>
      <point x="524" y="797"/>
      <point x="506" y="797" type="curve" smooth="yes"/>
      <point x="483" y="797"/>
      <point x="474" y="788"/>
      <point x="444" y="763" type="curve" smooth="yes"/>
      <point x="409" y="734"/>
      <point x="375" y="705"/>
    </contour>
  </outline>
</glyph>
<glyph name="Edieresis" format="2">
  <advance width="540"/>
  <unicode hex="00CB"/>
  <anchor x="392" y="792" name="aboveUC"/>
  <anchor x="283" y="-20" name="belowLC"/>
  <anchor x="391" y="0" name="ogonek"/>
  <outline>
    <contour>
      <point x="14" y="0" type="line"/>
      <point x="130" y="0" type="line"/>
      <point x="139" y="50" type="line"/>
      <point x="134" y="50" type="line"/>
      <point x="22" y="36" type="line"/>
    </contour>
    <contour>
      <point x="92" y="0" type="line"/>
      <point x="173" y="0" type="line"/>
      <point x="188" y="94"/>
      <point x="205" y="190"/>
      <point x="222" y="285" type="curve" smooth="yes"/>
      <point x="285" y="616" type="line"/>
      <point x="204" y="616" type="line"/>
      <point x="189" y="521"/>
      <point x="172" y="425"/>
      <point x="155" y="331" type="curve" smooth="yes"/>
    </contour>
    <contour>
      <point x="112" y="579" type="line"/>
      <point x="223" y="565" type="line"/>
      <point x="234" y="565" type="line"/>
      <point x="244" y="616" type="line"/>
      <point x="119" y="616" type="line"/>
    </contour>
    <contour>
      <point x="130" y="0" type="line"/>
      <point x="473" y="0" type="line"/>
      <point x="509" y="163" type="line"/>
      <point x="463" y="163" type="line"/>
      <point x="405" y="0" type="line"/>
      <point x="456" y="46" type="line"/>
      <point x="139" y="46" type="line"/>
    </contour>
    <contour>
      <point x="187" y="293" type="line"/>
      <point x="394" y="293" type="line"/>
      <point x="402" y="335" type="line"/>
      <point x="195" y="335" type="line"/>
    </contour>
    <contour>
      <point x="235" y="570" type="line"/>
      <point x="506" y="570" type="line"/>
      <point x="476" y="616" type="line"/>
      <point x="476" y="452" type="line"/>
      <point x="522" y="452" type="line"/>
      <point x="544" y="616" type="line"/>
      <point x="244" y="616" type="line"/>
    </contour>
    <contour>
      <point x="365" y="206" type="line"/>
      <point x="403" y="206" type="line"/>
      <point x="445" y="424" type="line"/>
      <point x="406" y="424" type="line"/>
      <point x="371" y="326" type="line"/>
      <point x="368" y="308" type="line"/>
    </contour>
    <contour>
      <point x="271" y="689" type="curve" smooth="yes"/>
      <point x="299" y="689"/>
      <point x="322" y="711"/>
      <point x="322" y="742" type="curve" smooth="yes"/>
      <point x="322" y="765"/>
      <point x="304" y="782"/>
      <point x="280" y="782" type="curve" smooth="yes"/>
      <point x="254" y="782"/>
      <point x="230" y="761"/>
      <point x="230" y="730" type="curve" smooth="yes"/>
      <point x="230" y="704"/>
      <point x="249" y="689"/>
    </contour>
    <contour>
      <point x="471" y="689" type="curve" smooth="yes"/>
      <point x="500" y="689"/>
      <point x="523" y="711"/>
      <point x="523" y="742" type="curve" smooth="yes"/>
      <point x="523" y="765"/>
      <point x="506" y="782"/>
      <point x="482" y="782" type="curve" smooth="yes"/>
      <point x="456" y="782"/>
      <point x="432" y="761"/>
      <point x="432" y="730" type="curve" smooth="yes"/>
      <point x="432" y="704"/>
      <point x="451" y="689"/>
    </contour>
  </outline>
</glyph>
<glyph name="Iacute" format="2">
  <advance width="328"/>
  <unicode hex="00CD"/>
  <anchor x="296" y="797" name="aboveUC"/>
  <anchor x="129" y="-20" name="belowLC"/>
  <anchor x="162" y="0" name="ogonek"/>
  <outline>
    <contour>
      <point x="14" y="0" type="line"/>
      <point x="257" y="0" type="line"/>
      <point x="264" y="36" type="line"/>
      <point x="155" y="50" type="line"/>
      <point x="138" y="50" type="line"/>
      <point x="22" y="36" type="line"/>
    </contour>
    <contour>
      <point x="92" y="0" type="line"/>
      <point x="173" y="0" type="line"/>
      <point x="188" y="94"/>
      <point x="205" y="190"/>
      <point x="222" y="285" type="curve" smooth="yes"/>
      <point x="285" y="616" type="line"/>
      <point x="204" y="616" type="line"/>
      <point x="189" y="521"/>
      <point x="172" y="425"/>
      <point x="155" y="331" type="curve" smooth="yes"/>
    </contour>
    <contour>
      <point x="112" y="579" type="line"/>
      <point x="223" y="565" type="line"/>
      <point x="241" y="565" type="line"/>
      <point x="355" y="579" type="line"/>
      <point x="362" y="616" type="line"/>
      <point x="119" y="616" type="line"/>
    </contour>
    <contour>
      <point x="206" y="676" type="curve"/>
      <point x="218" y="655" type="line"/>
      <point x="264" y="676"/>
      <point x="310" y="696"/>
      <point x="356" y="716" type="curve" smooth="yes"/>
      <point x="400" y="736"/>
      <point x="405" y="750"/>
      <point x="405" y="766" type="curve" smooth="yes"/>
      <point x="405" y="785"/>
      <point x="390" y="797"/>
      <point x="372" y="797" type="curve" smooth="yes"/>
      <point x="349" y="797"/>
      <point x="340" y="788"/>
      <point x="310" y="763" type="curve" smooth="yes"/>
      <point x="275" y="734"/>
      <point x="241" y="705"/>
    </contour>
  </outline>
</glyph>
<glyph name="Icircumflex" format="2">
  <advance width="328"/>
  <unicode hex="00CE"/>
  <anchor x="275" y="801" name="aboveUC"/>
  <anchor x="129" y="-20" name="belowLC"/>
  <anchor x="162" y="0" name="ogonek"/>
  <outline>
    <contour>
      <point x="14" y="0" type="line"/>
      <point x="257" y="0" type="line"/>
      <point x="264" y="36" type="line"/>
      <point x="155" y="50" type="line"/>
      <point x="138" y="50" type="line"/>
      <point x="22" y="36" type="line"/>
    </contour>
    <contour>
      <point x="92" y="0" type="line"/>
      <point x="173" y="0" type="line"/>
      <point x="188" y="94"/>
      <point x="205" y="190"/>
      <point x="222" y="285" type="curve" smooth="yes"/>
      <point x="285" y="616" type="line"/>
      <point x="204" y="616" type="line"/>
      <point x="189" y="521"/>
      <point x="172" y="425"/>
      <point x="155" y="331" type="curve" smooth="yes"/>
    </contour>
    <contour>
      <point x="112" y="579" type="line"/>
      <point x="223" y="565" type="line"/>
      <point x="241" y="565" type="line"/>
      <point x="355" y="579" type="line"/>
      <point x="362" y="616" type="line"/>
      <point x="119" y="616" type="line"/>
    </contour>
    <contour>
      <point x="286" y="792" type="line"/>
      <point x="256" y="792" type="line"/>
      <point x="117" y="682" type="line"/>
      <point x="130" y="660" type="line"/>
      <point x="304" y="759" type="line"/>
      <point x="227" y="759" type="line"/>
      <point x="373" y="660" type="line"/>
      <point x="395" y="682" type="line"/>
    </contour>
  </outline>
</glyph>
<glyph name="Ocircumflex" format="2">
  <advance width="607"/>
  <unicode hex="00D4"/>
  <anchor x="415" y="801" name="aboveUC"/>
  <anchor x="279" y="-19" name="belowLC"/>
  <anchor x="522" y="621" name="hornLC"/>
  <anchor x="360" y="0" name="ogonek"/>
  <outline>
    <contour>
      <point x="280" y="-12" type="curve" smooth="yes"/>
      <point x="472" y="-12"/>
      <point x="600" y="164"/>
      <point x="600" y="376" type="curve" smooth="yes"/>
      <point x="600" y="530"/>
      <point x="515" y="629"/>
      <point x="379" y="629" type="curve" smooth="yes"/>
      <point x="191" y="629"/>
      <point x="61" y="451"/>
      <point x="61" y="238" type="curve" smooth="yes"/>
      <point x="61" y="82"/>
      <point x="148" y="-12"/>
    </contour>
    <contour>
      <point x="293" y="33" type="curve" smooth="yes"/>
      <point x="188" y="33"/>
      <point x="141" y="115"/>
      <point x="141" y="237" type="curve" smooth="yes"/>
      <point x="141" y="434"/>
      <point x="232" y="583"/>
      <point x="368" y="583" type="curve" smooth="yes"/>
      <point x="474" y="583"/>
      <point x="520" y="503"/>
      <point x="520" y="377" type="curve" smooth="yes"/>
      <point x="520" y="181"/>
      <point x="429" y="33"/>
    </contour>
    <contour>
      <point x="426" y="792" type="line"/>
      <point x="397" y="792" type="line"/>
      <point x="258" y="682" type="line"/>
      <point x="271" y="660" type="line"/>
      <point x="445" y="759" type="line"/>
      <point x="368" y="759" type="line"/>
      <point x="514" y="660" type="line"/>
      <point x="536" y="682" type="line"/>
    </contour>
  </outline>
</glyph>
<glyph name="atilde" format="2">
  <advance width="479"/>
  <unicode hex="00E3"/>
  <anchor x="361" y="666" name="aboveLC"/>
  <anchor x="199" y="-20" name="belowLC"/>
  <anchor x="368" y="0" name="ogonek"/>
  <outline>
    <contour>
      <point x="128" y="-11" type="curve" smooth="yes"/>
      <point x="194" y="-11"/>
      <point x="276" y="61"/>
      <point x="340" y="157" type="curve"/>
      <point x="332" y="177" type="line"/>
      <point x="251" y="80"/>
      <point x="205" y="50"/>
      <point x="166" y="50" type="curve" smooth="yes"/>
      <point x="133" y="50"/>
      <point x="111" y="77"/>
      <point x="111" y="133" type="curve" smooth="yes"/>
      <point x="111" y="215"/>
      <point x="146" y="287"/>
      <point x="190" y="333" type="curve" smooth="yes"/>
      <point x="224" y="368"/>
      <point x="263" y="387"/>
      <point x="292" y="387" type="curve" smooth="yes"/>
      <point x="324" y="387"/>
      <point x="356" y="368"/>
      <point x="379" y="348" type="curve"/>
      <point x="412" y="371" type="line"/>
      <point x="388" y="414"/>
      <point x="364" y="448"/>
      <point x="324" y="448" type="curve" smooth="yes"/>
      <point x="207" y="448"/>
      <point x="41" y="255"/>
      <point x="41" y="95" type="curve" smooth="yes"/>
      <point x="41" y="20"/>
      <point x="84" y="-11"/>
    </contour>
    <contour>
      <point x="333" y="-11" type="curve" smooth="yes"/>
      <point x="394" y="-11"/>
      <point x="451" y="46"/>
      <point x="488" y="100" type="curve"/>
      <point x="466" y="117" type="line"/>
      <point x="434" y="78"/>
      <point x="398" y="50"/>
      <point x="375" y="50" type="curve" smooth="yes"/>
      <point x="363" y="50"/>
      <point x="353" y="57"/>
      <point x="353" y="70" type="curve" smooth="yes"/>
      <point x="353" y="81"/>
      <point x="356" y="101"/>
      <point x="361" y="124" type="curve" smooth="yes"/>
      <point x="435" y="448" type="line"/>
      <point x="418" y="457" type="line"/>
      <point x="357" y="406" type="line"/>
      <point x="295" y="116" type="line" smooth="yes"/>
      <point x="288" y="86"/>
      <point x="286" y="67"/>
      <point x="286" y="40" type="curve" smooth="yes"/>
      <point x="286" y="4"/>
      <point x="308" y="-11"/>
    </contour>
    <contour>
      <point x="186" y="539" type="curve"/>
      <point x="208" y="530" type="line"/>
      <point x="220" y="585"/>
      <point x="246" y="609"/>
      <point x="270" y="609" type="curve" smooth="yes"/>
      <point x="299" y="609"/>
      <point x="318" y="585"/>
      <point x="336" y="563" type="curve" smooth="yes"/>
      <point x="352" y="546"/>
      <point x="370" y="529"/>
      <point x="405" y="529" type="curve" smooth="yes"/>
      <point x="452" y="529"/>
      <point x="489" y="567"/>
      <point x="505" y="646" type="curve"/>
      <point x="482" y="655" type="line"/>
      <point x="470" y="600"/>
      <point x="444" y="576"/>
      <point x="420" y="576" type="curve" smooth="yes"/>
      <point x="391" y="576"/>
      <point x="374" y="600"/>
      <point x="354" y="621" type="curve" smooth="yes"/>
      <point x="338" y="639"/>
      <point x="321" y="656"/>
      <point x="286" y="656" type="curve" smooth="yes"/>
      <point x="240" y="656"/>
      <point x="200" y="618"/>
    </contour>
  </outline>
</glyph>
<glyph name="oacute" format="2">
  <advance width="448"/>
  <unicode hex="00F3"/>
  <anchor x="325" y="698" name="aboveLC"/>
  <anchor x="185" y="-20" name="belowLC"/>
  <anchor x="382" y="441" name="hornLC"/>
  <anchor x="253" y="0" name="ogonek"/>
  <outline>
    <contour>
      <point x="202" y="-11" type="curve" smooth="yes"/>
      <point x="331" y="-11"/>
      <point x="437" y="126"/>
      <point x="437" y="287" type="curve" smooth="yes"/>
      <point x="437" y="391"/>
      <point x="375" y="448"/>
      <point x="288" y="448" type="curve" smooth="yes"/>
      <point x="159" y="448"/>
      <point x="49" y="315"/>
      <point x="49" y="149" type="curve" smooth="yes"/>
      <point x="49" y="45"/>
      <point x="117" y="-11"/>
    </contour>
    <contour>
      <point x="212" y="24" type="curve" smooth="yes"/>
      <point x="161" y="24"/>
      <point x="123" y="64"/>
      <point x="123" y="161" type="curve" smooth="yes"/>
      <point x="123" y="299"/>
      <point x="191" y="411"/>
      <point x="278" y="411" type="curve" smooth="yes"/>
      <point x="329" y="411"/>
      <point x="364" y="372"/>
      <point x="364" y="272" type="curve" smooth="yes"/>
      <point x="364" y="149"/>
      <point x="303" y="24"/>
    </contour>
    <contour>
      <point x="269" y="505" type="curve"/>
      <point x="290" y="491" type="line"/>
      <point x="327" y="535"/>
      <point x="363" y="578"/>
      <point x="400" y="622" type="curve" smooth="yes"/>
      <point x="414" y="640"/>
      <point x="419" y="653"/>
      <point x="419" y="667" type="curve" smooth="yes"/>
      <point x="419" y="688"/>
      <point x="403" y="698"/>
      <point x="384" y="698" type="curve" smooth="yes"/>
      <point x="364" y="698"/>
      <point x="349" y="683"/>
      <point x="338" y="659" type="curve" smooth="yes"/>
      <point x="315" y="608"/>
      <point x="292" y="556"/>
    </contour>
  </outline>
</glyph>
<glyph name="divide" format="2">
  <advance width="487"/>
  <unicode hex="00F7"/>
  <outline>
    <contour>
      <point x="258" y="66" type="curve" smooth="yes"/>
      <point x="290" y="66"/>
      <point x="317" y="89"/>
      <point x="317" y="123" type="curve" smooth="yes"/>
      <point x="317" y="158"/>
      <point x="290" y="180"/>
      <point x="258" y="180" type="curve" smooth="yes"/>
      <point x="226" y="180"/>
      <point x="199" y="158"/>
      <point x="199" y="123" type="curve" smooth="yes"/>
      <point x="199" y="89"/>
      <point x="226" y="66"/>
    </contour>
    <contour>
      <point x="258" y="426" type="curve" smooth="yes"/>
      <point x="290" y="426"/>
      <point x="317" y="449"/>
      <point x="317" y="483" type="curve" smooth="yes"/>
      <point x="317" y="518"/>
      <point x="290" y="540"/>
      <point x="258" y="540" type="curve" smooth="yes"/>
      <point x="226" y="540"/>
      <point x="199" y="518"/>
      <point x="199" y="483" type="curve" smooth="yes"/>
      <point x="199" y="449"/>
      <point x="226" y="426"/>
    </contour>
    <contour>
      <point x="462" y="279" type="line"/>
      <point x="462" y="327" type="line"/>
      <point x="54" y="327" type="line"/>
      <point x="54" y="279" type="line"/>
    </contour>
  </outline>
</glyph>
<glyph name="ugrave" format="2">
  <advance width="526"/>
  <unicode hex="00F9"/>
  <anchor x="379" y="672" name="aboveLC"/>
  <anchor x="251" y="-20" name="belowLC"/>
  <anchor x="465" y="433" name="hornLC"/>
  <anchor x="395" y="0" name="ogonek"/>
  <outline>
    <contour>
      <point x="153" y="-11" type="curve" smooth="yes"/>
      <point x="219" y="-11"/>
      <point x="288" y="44"/>
      <point x="379" y="132" type="curve"/>
      <point x="379" y="158" type="line"/>
      <point x="287" y="83"/>
      <point x="242" y="50"/>
      <point x="198" y="50" type="curve" smooth="yes"/>
      <point x="176" y="50"/>
      <point x="163" y="63"/>
      <point x="163" y="90" type="curve" smooth="yes"/>
      <point x="163" y="110"/>
      <point x="169" y="140"/>
      <point x="177" y="178" type="curve" smooth="yes"/>
      <point x="235" y="438" type="line"/>
      <point x="223" y="448" type="line"/>
      <point x="64" y="402" type="line"/>
      <point x="60" y="374" type="line"/>
      <point x="163" y="368" type="line"/>
      <point x="157" y="389" type="line"/>
      <point x="110" y="172" type="line" smooth="yes"/>
      <point x="103" y="135"/>
      <point x="91" y="89"/>
      <point x="91" y="55" type="curve" smooth="yes"/>
      <point x="91" y="4"/>
      <point x="119" y="-11"/>
    </contour>
    <contour>
      <point x="379" y="-11" type="curve" smooth="yes"/>
      <point x="444" y="-11"/>
      <point x="493" y="45"/>
      <point x="535" y="100" type="curve"/>
      <point x="513" y="117" type="line"/>
      <point x="474" y="73"/>
      <point x="447" y="50"/>
      <point x="422" y="50" type="curve" smooth="yes"/>
      <point x="411" y="50"/>
      <point x="401" y="57"/>
      <point x="401" y="70" type="curve" smooth="yes"/>
      <point x="401" y="81"/>
      <point x="404" y="101"/>
      <point x="409" y="124" type="curve" smooth="yes"/>
      <point x="474" y="438" type="line"/>
      <point x="462" y="448" type="line"/>
      <point x="404" y="429" type="line"/>
      <point x="394" y="370"/>
      <point x="382" y="310"/>
      <point x="370" y="252" type="curve" smooth="yes"/>
      <point x="339" y="101" type="line" smooth="yes"/>
      <point x="331" y="63"/>
      <point x="330" y="47"/>
      <point x="330" y="34" type="curve" smooth="yes"/>
      <point x="330" y="3"/>
      <point x="354" y="-11"/>
    </contour>
    <contour>
      <point x="352" y="495" type="line"/>
      <point x="329" y="547"/>
      <point x="306" y="598"/>
      <point x="283" y="650" type="curve" smooth="yes"/>
      <point x="272" y="674"/>
      <point x="257" y="690"/>
      <point x="237" y="690" type="curve" smooth="yes"/>
      <point x="218" y="690"/>
      <point x="202" y="678"/>
      <point x="202" y="659" type="curve" smooth="yes"/>
      <point x="202" y="644"/>
      <point x="207" y="631"/>
      <point x="221" y="613" type="curve" smooth="yes"/>
      <point x="258" y="569"/>
      <point x="294" y="526"/>
      <point x="331" y="482" type="curve"/>
    </contour>
  </outline>
</glyph>
<glyph name="udieresis" format="2">
  <advance width="526"/>
  <unicode hex="00FC"/>
  <anchor x="357" y="644" name="aboveLC"/>
  <anchor x="251" y="-20" name="belowLC"/>
  <anchor x="465" y="433" name="hornLC"/>
  <anchor x="395" y="0" name="ogonek"/>
  <outline>
    <contour>
      <point x="153" y="-11" type="curve" smooth="yes"/>
      <point x="219" y="-11"/>
      <point x="288" y="44"/>
      <point x="379" y="132" type="curve"/>
      <point x="379" y="158" type="line"/>
      <point x="287" y="83"/>
      <point x="242" y="50"/>
      <point x="198" y="50" type="curve" smooth="yes"/>
      <point x="176" y="50"/>
      <point x="163" y="63"/>
      <point x="163" y="90" type="curve" smooth="yes"/>
      <point x="163" y="110"/>
      <point x="169" y="140"/>
      <point x="177" y="178" type="curve" smooth="yes"/>
      <point x="235" y="438" type="line"/>
      <point x="223" y="448" type="line"/>
      <point x="64" y="402" type="line"/>
      <point x="60" y="374" type="line"/>
      <point x="163" y="368" type="line"/>
      <point x="157" y="389" type="line"/>
      <point x="110" y="172" type="line" smooth="yes"/>
      <point x="103" y="135"/>
      <point x="91" y="89"/>
      <point x="91" y="55" type="curve" smooth="yes"/>
      <point x="91" y="4"/>
      <point x="119" y="-11"/>
    </contour>
    <contour>
      <point x="379" y="-11" type="curve" smooth="yes"/>
      <point x="444" y="-11"/>
      <point x="493" y="45"/>
      <point x="535" y="100" type="curve"/>
      <point x="513" y="117" type="line"/>
      <point x="474" y="73"/>
      <point x="447" y="50"/>
      <point x="422" y="50" type="curve" smooth="yes"/>
      <point x="411" y="50"/>
      <point x="401" y="57"/>
      <point x="401" y="70" type="curve" smooth="yes"/>
      <point x="401" y="81"/>
      <point x="404" y="101"/>
      <point x="409" y="124" type="curve" smooth="yes"/>
      <point x="474" y="438" type="line"/>
      <point x="462" y="448" type="line"/>
      <point x="404" y="429" type="line"/>
      <point x="394" y="370"/>
      <point x="382" y="310"/>
      <point x="370" y="252" type="curve" smooth="yes"/>
      <point x="339" y="101" type="line" smooth="yes"/>
      <point x="331" y="63"/>
      <point x="330" y="47"/>
      <point x="330" y="34" type="curve" smooth="yes"/>
      <point x="330" y="3"/>
      <point x="354" y="-11"/>
    </contour>
    <contour>
      <point x="254" y="575" type="curve" smooth="yes"/>
      <point x="282" y="575"/>
      <point x="305" y="597"/>
      <point x="305" y="628" type="curve" smooth="yes"/>
      <point x="305" y="651"/>
      <point x="287" y="668"/>
      <point x="264" y="668" type="curve" smooth="yes"/>
      <point x="238" y="668"/>
      <point x="213" y="647"/>
      <point x="213" y="616" type="curve" smooth="yes"/>
      <point x="213" y="590"/>
      <point x="232" y="575"/>
    </contour>
    <contour>
      <point x="432" y="575" type="curve" smooth="yes"/>
      <point x="460" y="575"/>
      <point x="483" y="597"/>
      <point x="483" y="628" type="curve" smooth="yes"/>
      <point x="483" y="651"/>
      <point x="465" y="668"/>
      <point x="441" y="668" type="curve" smooth="yes"/>
      <point x="416" y="668"/>
      <point x="391" y="647"/>
      <point x="391" y="616" type="curve" smooth="yes"/>
      <point x="391" y="590"/>
      <point x="411" y="575"/>
    </contour>
  </outline>
</glyph>
<glyph name="OE" format="2">
  <advance width="817"/>
  <unicode hex="0152"/>
  <anchor x="523" y="635" name="aboveUC"/>
  <outline>
    <contour>
      <point x="408" y="0" type="curve"/>
      <point x="417" y="48" type="line"/>
      <point x="386" y="38"/>
      <point x="352" y="32"/>
      <point x="318" y="32" type="curve" smooth="yes"/>
      <point x="207" y="32"/>
      <point x="141" y="102"/>
      <point x="141" y="241" type="curve" smooth="yes"/>
      <point x="141" y="437"/>
      <point x="253" y="584"/>
      <point x="414" y="584" type="curve" smooth="yes"/>
      <point x="451" y="584"/>
      <point x="490" y="576"/>
      <point x="511" y="566" type="curve"/>
      <point x="521" y="616" type="line"/>
      <point x="488" y="623"/>
      <point x="451" y="630"/>
      <point x="408" y="630" type="curve" smooth="yes"/>
      <point x="204" y="630"/>
      <point x="61" y="452"/>
      <point x="61" y="241" type="curve" smooth="yes"/>
      <point x="61" y="73"/>
      <point x="161" y="-13"/>
      <point x="306" y="-13" type="curve" smooth="yes"/>
      <point x="343" y="-13"/>
      <point x="373" y="-8"/>
    </contour>
    <contour>
      <point x="370" y="0" type="line"/>
      <point x="451" y="0" type="line"/>
      <point x="466" y="94"/>
      <point x="483" y="190"/>
      <point x="500" y="285" type="curve" smooth="yes"/>
      <point x="563" y="616" type="line"/>
      <point x="482" y="616" type="line"/>
      <point x="467" y="521"/>
      <point x="450" y="425"/>
      <point x="433" y="331" type="curve" smooth="yes"/>
    </contour>
    <contour>
      <point x="408" y="0" type="line"/>
      <point x="751" y="0" type="line"/>
      <point x="787" y="163" type="line"/>
      <point x="741" y="163" type="line"/>
      <point x="683" y="0" type="line"/>
      <point x="734" y="46" type="line"/>
      <point x="417" y="46" type="line"/>
    </contour>
    <contour>
      <point x="465" y="293" type="line"/>
      <point x="672" y="293" type="line"/>
      <point x="679" y="335" type="line"/>
      <point x="473" y="335" type="line"/>
    </contour>
    <contour>
      <point x="513" y="570" type="line"/>
      <point x="783" y="570" type="line"/>
      <point x="754" y="616" type="line"/>
      <point x="754" y="452" type="line"/>
      <point x="800" y="452" type="line"/>
      <point x="822" y="616" type="line"/>
      <point x="522" y="616" type="line"/>
    </contour>
    <contour>
      <point x="643" y="206" type="line"/>
      <point x="681" y="206" type="line"/>
      <point x="723" y="424" type="line"/>
      <point x="684" y="424" type="line"/>
      <point x="649" y="326" type="line"/>
      <point x="646" y="308" type="line"/>
    </contour>
  </outline>
</glyph>
<glyph name="oe" format="2">
  <advance width="682"/>
  <unicode hex="0153"/>
  <anchor x="431" y="465" name="aboveLC"/>
  <anchor x="485" y="-20" name="belowLC"/>
  <anchor x="530" y="0" name="ogonek"/>
  <outline>
    <contour>
      <point x="202" y="-11" type="curve" smooth="yes"/>
      <point x="283" y="-11"/>
      <point x="356" y="46"/>
      <point x="397" y="131" type="curve"/>
      <point x="432" y="314" type="line"/>
      <point x="417" y="401"/>
      <point x="362" y="448"/>
      <point x="288" y="448" type="curve" smooth="yes"/>
      <point x="159" y="448"/>
      <point x="49" y="315"/>
      <point x="49" y="149" type="curve" smooth="yes"/>
      <point x="49" y="45"/>
      <point x="117" y="-11"/>
    </contour>
    <contour>
      <point x="212" y="24" type="curve" smooth="yes"/>
      <point x="161" y="24"/>
      <point x="123" y="64"/>
      <point x="123" y="161" type="curve" smooth="yes"/>
      <point x="123" y="299"/>
      <point x="191" y="411"/>
      <point x="278" y="411" type="curve" smooth="yes"/>
      <point x="329" y="411"/>
      <point x="364" y="372"/>
      <point x="364" y="272" type="curve" smooth="yes"/>
      <point x="364" y="149"/>
      <point x="303" y="24"/>
    </contour>
    <contour>
      <point x="497" y="-11" type="curve" smooth="yes"/>
      <point x="564" y="-11"/>
      <point x="623" y="38"/>
      <point x="662" y="101" type="curve"/>
      <point x="641" y="117" type="line"/>
      <point x="616" y="86"/>
      <point x="575" y="50"/>
      <point x="517" y="50" type="curve" smooth="yes"/>
      <point x="457" y="50"/>
      <point x="421" y="86"/>
      <point x="421" y="178" type="curve" smooth="yes"/>
      <point x="421" y="300"/>
      <point x="518" y="408"/>
      <point x="578" y="408" type="curve" smooth="yes"/>
      <point x="609" y="408"/>
      <point x="630" y="388"/>
      <point x="630" y="354" type="curve" smooth="yes"/>
      <point x="630" y="301"/>
      <point x="570" y="234"/>
      <point x="398" y="190" type="curve"/>
      <point x="402" y="155" type="line"/>
      <point x="629" y="216"/>
      <point x="690" y="303"/>
      <point x="690" y="363" type="curve" smooth="yes"/>
      <point x="690" y="417"/>
      <point x="657" y="448"/>
      <point x="598" y="448" type="curve" smooth="yes"/>
      <point x="471" y="448"/>
      <point x="359" y="307"/>
      <point x="359" y="159" type="curve" smooth="yes"/>
      <point x="359" y="41"/>
      <point x="417" y="-11"/>
    </contour>
  </outline>
</glyph>
<glyph name="Scaron" format="2">
  <advance width="454"/>
  <unicode hex="0160"/>
  <anchor x="352" y="788" name="aboveUC"/>
  <anchor x="188" y="0" name="baseLC"/>
  <anchor x="193" y="-20" name="belowLC"/>
  <outline>
    <contour>
      <point x="31" y="27" type="line"/>
      <point x="69" y="1"/>
      <point x="138" y="-13"/>
      <point x="194" y="-13" type="curve" smooth="yes"/>
      <point x="316" y="-13"/>
      <point x="398" y="56"/>
      <point x="398" y="162" type="curve" smooth="yes"/>
      <point x="398" y="218"/>
      <point x="375" y="265"/>
      <point x="271" y="346" type="curve" smooth="yes"/>
      <point x="206" y="397"/>
      <point x="181" y="433"/>
      <point x="181" y="482" type="curve" smooth="yes"/>
      <point x="181" y="551"/>
      <point x="232" y="584"/>
      <point x="323" y="584" type="curve" smooth="yes"/>
      <point x="350" y="584"/>
      <point x="377" y="580"/>
      <point x="423" y="557" type="curve"/>
      <point x="383" y="588" type="line"/>
      <point x="390" y="460" type="line"/>
      <point x="443" y="460" type="line"/>
      <point x="465" y="588" type="line"/>
      <point x="413" y="619"/>
      <point x="362" y="630"/>
      <point x="312" y="630" type="curve" smooth="yes"/>
      <point x="195" y="630"/>
      <point x="113" y="559"/>
      <point x="113" y="462" type="curve" smooth="yes"/>
      <point x="113" y="405"/>
      <point x="137" y="353"/>
      <point x="230" y="281" type="curve" smooth="yes"/>
      <point x="313" y="218"/>
      <point x="326" y="184"/>
      <point x="326" y="143" type="curve" smooth="yes"/>
      <point x="326" y="79"/>
      <point x="283" y="32"/>
      <point x="190" y="32" type="curve" smooth="yes"/>
      <point x="147" y="32"/>
      <point x="103" y="41"/>
      <point x="69" y="61" type="curve"/>
      <point x="113" y="29" type="line"/>
      <point x="101" y="158" type="line"/>
      <point x="48" y="158" type="line"/>
    </contour>
    <contour>
      <point x="241" y="797" type="line"/>
      <point x="216" y="779" type="line"/>
      <point x="306" y="671" type="line"/>
      <point x="356" y="671" type="line"/>
      <point x="477" y="779" type="line"/>
      <point x="460" y="797" type="line"/>
      <point x="302" y="697" type="line"/>
      <point x="361" y="697" type="line"/>
    </contour>
  </outline>
</glyph>
<glyph name="florin" format="2">
  <advance width="469"/>
  <unicode hex="0192"/>
  <outline>
    <contour>
      <point x="132" y="317" type="line"/>
      <point x="399" y="317" type="line"/>
      <point x="408" y="363" type="line"/>
      <point x="141" y="363" type="line"/>
    </contour>
    <contour>
      <point x="296" y="321" type="line" smooth="yes"/>
      <point x="320" y="432"/>
      <point x="328" y="487"/>
      <point x="357" y="530" type="curve" smooth="yes"/>
      <point x="371" y="550"/>
      <point x="389" y="566"/>
      <point x="416" y="577" type="curve"/>
      <point x="389" y="577" type="line"/>
      <point x="412" y="547" type="line" smooth="yes"/>
      <point x="429" y="525"/>
      <point x="447" y="517"/>
      <point x="465" y="517" type="curve" smooth="yes"/>
      <point x="493" y="517"/>
      <point x="510" y="534"/>
      <point x="518" y="558" type="curve"/>
      <point x="514" y="586"/>
      <point x="485" y="607"/>
      <point x="440" y="607" type="curve" smooth="yes"/>
      <point x="405" y="607"/>
      <point x="365" y="594"/>
      <point x="328" y="556" type="curve" smooth="yes"/>
      <point x="284" y="510"/>
      <point x="258" y="444"/>
      <point x="231" y="325" type="curve" smooth="yes"/>
      <point x="204" y="199" type="line" smooth="yes"/>
      <point x="179" y="88"/>
      <point x="171" y="27"/>
      <point x="141" y="-15" type="curve" smooth="yes"/>
      <point x="127" y="-34"/>
      <point x="110" y="-51"/>
      <point x="82" y="-62" type="curve"/>
      <point x="111" y="-62" type="line"/>
      <point x="87" y="-32" type="line" smooth="yes"/>
      <point x="69" y="-10"/>
      <point x="52" y="-2"/>
      <point x="33" y="-2" type="curve" smooth="yes"/>
      <point x="5" y="-2"/>
      <point x="-11" y="-19"/>
      <point x="-20" y="-43" type="curve"/>
      <point x="-15" y="-70"/>
      <point x="13" y="-92"/>
      <point x="58" y="-92" type="curve" smooth="yes"/>
      <point x="93" y="-92"/>
      <point x="134" y="-79"/>
      <point x="170" y="-41" type="curve" smooth="yes"/>
      <point x="218" y="8"/>
      <point x="241" y="79"/>
      <point x="272" y="214" type="curve" smooth="yes"/>
    </contour>
  </outline>
</glyph>
<glyph name="uni02CD" format="2">
  <advance width="490"/>
  <unicode hex="02CD"/>
  <outline>
    <contour>
      <point x="8" y="39" type="curve" smooth="yes"/>
      <point x="4" y="28"/>
      <point x="3" y="20"/>
      <point x="3" y="15" type="curve" smooth="yes"/>
      <point x="3" y="0"/>
      <point x="15" y="-2"/>
      <point x="28" y="-2" type="curve" smooth="yes"/>
      <point x="62" y="-2"/>
      <point x="111" y="0"/>
      <point x="179" y="0" type="curve" smooth="yes"/>
      <point x="208" y="0"/>
      <point x="288" y="-1"/>
      <point x="309" y="-1" type="curve" smooth="yes"/>
      <point x="322" y="-1"/>
      <point x="337" y="0"/>
      <point x="342" y="3" type="curve" smooth="yes"/>
      <point x="355" y="10"/>
      <point x="361" y="32"/>
      <point x="361" y="42" type="curve" smooth="yes"/>
      <point x="361" y="58"/>
      <point x="353" y="60"/>
      <point x="334" y="60" type="curve" smooth="yes"/>
      <point x="307" y="60"/>
      <point x="204" y="58"/>
      <point x="166" y="58" type="curve" smooth="yes"/>
      <point x="117" y="58"/>
      <point x="84" y="59"/>
      <point x="38" y="59" type="curve" smooth="yes"/>
      <point x="23" y="59"/>
      <point x="13" y="53"/>
    </contour>
  </outline>
</glyph>
<glyph name="breve" format="2">
  <advance width="368"/>
  <unicode hex="02D8"/>
  <anchor x="232" y="460" name="_aboveLC"/>
  <anchor x="278" y="676" name="aboveLC"/>
  <outline>
    <contour>
      <point x="244" y="529" type="curve" smooth="yes"/>
      <point x="333" y="529"/>
      <point x="381" y="598"/>
      <point x="402" y="665" type="curve"/>
      <point x="371" y="676" type="line"/>
      <point x="346" y="627"/>
      <point x="308" y="587"/>
      <point x="251" y="587" type="curve" smooth="yes"/>
      <point x="195" y="587"/>
      <point x="167" y="628"/>
      <point x="150" y="676" type="curve"/>
      <point x="120" y="661" type="line"/>
      <point x="126" y="598"/>
      <point x="155" y="529"/>
    </contour>
  </outline>
</glyph>
<glyph name="ring" format="2">
  <advance width="368"/>
  <unicode hex="02DA"/>
  <anchor x="241" y="469" name="_aboveLC"/>
  <anchor x="290" y="700" name="aboveLC"/>
  <outline>
    <contour>
      <point x="261" y="505" type="curve" smooth="yes"/>
      <point x="311" y="505"/>
      <point x="366" y="541"/>
      <point x="366" y="609" type="curve" smooth="yes"/>
      <point x="366" y="659"/>
      <point x="323" y="690"/>
      <point x="276" y="690" type="curve" smooth="yes"/>
      <point x="228" y="690"/>
      <point x="172" y="654"/>
      <point x="172" y="588" type="curve" smooth="yes"/>
      <point x="172" y="537"/>
      <point x="212" y="505"/>
    </contour>
    <contour>
      <point x="264" y="539" type="curve" smooth="yes"/>
      <point x="228" y="539"/>
      <point x="214" y="565"/>
      <point x="214" y="590" type="curve" smooth="yes"/>
      <point x="214" y="623"/>
      <point x="238" y="657"/>
      <point x="276" y="657" type="curve" smooth="yes"/>
      <point x="309" y="657"/>
      <point x="324" y="632"/>
      <point x="324" y="606" type="curve" smooth="yes"/>
      <point x="324" y="570"/>
      <point x="297" y="539"/>
    </contour>
  </outline>
</glyph>
<glyph name="dagger" format="2">
  <advance width="445"/>
  <unicode hex="2020"/>
  <outline>
    <contour>
      <point x="66" y="436" type="curve" smooth="yes"/>
      <point x="66" y="419"/>
      <point x="76" y="411"/>
      <point x="100" y="411" type="curve" smooth="yes"/>
      <point x="123" y="411"/>
      <point x="176" y="421"/>
      <point x="210" y="425" type="curve" smooth="yes"/>
      <point x="275" y="431" type="line"/>
      <point x="279" y="455" type="line"/>
      <point x="218" y="462" type="line" smooth="yes"/>
      <point x="185" y="466"/>
      <point x="136" y="475"/>
      <point x="113" y="475" type="curve" smooth="yes"/>
      <point x="84" y="475"/>
      <point x="66" y="464"/>
    </contour>
    <contour>
      <point x="161" y="-64" type="curve"/>
      <point x="185" y="-64" type="line"/>
      <point x="238" y="139"/>
      <point x="260" y="231"/>
      <point x="270" y="285" type="curve" smooth="yes"/>
      <point x="275" y="309"/>
      <point x="277" y="326"/>
      <point x="279" y="346" type="curve" smooth="yes"/>
      <point x="282" y="370"/>
      <point x="285" y="398"/>
      <point x="288" y="443" type="curve"/>
      <point x="264" y="443" type="line"/>
      <point x="244" y="371"/>
      <point x="230" y="339"/>
      <point x="218" y="285" type="curve" smooth="yes"/>
      <point x="211" y="248"/>
      <point x="191" y="129"/>
    </contour>
    <contour>
      <point x="321" y="659" type="curve" smooth="yes"/>
      <point x="298" y="659"/>
      <point x="286" y="644"/>
      <point x="281" y="621" type="curve" smooth="yes"/>
      <point x="275" y="592"/>
      <point x="275" y="550"/>
      <point x="270" y="506" type="curve" smooth="yes"/>
      <point x="264" y="443" type="line"/>
      <point x="288" y="443" type="line"/>
      <point x="308" y="506" type="line" smooth="yes"/>
      <point x="321" y="549"/>
      <point x="347" y="612"/>
      <point x="347" y="634" type="curve" smooth="yes"/>
      <point x="347" y="652"/>
      <point x="337" y="659"/>
    </contour>
    <contour>
      <point x="483" y="452" type="curve" smooth="yes"/>
      <point x="483" y="467"/>
      <point x="472" y="475"/>
      <point x="449" y="475" type="curve" smooth="yes"/>
      <point x="427" y="475"/>
      <point x="378" y="465"/>
      <point x="345" y="461" type="curve" smooth="yes"/>
      <point x="279" y="455" type="line"/>
      <point x="275" y="431" type="line"/>
      <point x="337" y="424" type="line" smooth="yes"/>
      <point x="368" y="420"/>
      <point x="414" y="411"/>
      <point x="437" y="411" type="curve" smooth="yes"/>
      <point x="467" y="411"/>
      <point x="483" y="427"/>
    </contour>
  </outline>
</glyph>
<glyph name="daggerdbl" format="2">
  <advance width="445"/>
  <unicode hex="2021"/>
  <outline>
    <contour>
      <point x="14" y="124" type="curve" smooth="yes"/>
      <point x="14" y="109"/>
      <point x="25" y="101"/>
      <point x="49" y="101" type="curve" smooth="yes"/>
      <point x="71" y="101"/>
      <point x="121" y="111"/>
      <point x="154" y="115" type="curve" smooth="yes"/>
      <point x="218" y="121" type="line"/>
      <point x="224" y="145" type="line"/>
      <point x="161" y="152" type="line" smooth="yes"/>
      <point x="130" y="156"/>
      <point x="84" y="165"/>
      <point x="62" y="165" type="curve" smooth="yes"/>
      <point x="31" y="165"/>
      <point x="14" y="149"/>
    </contour>
    <contour>
      <point x="66" y="436" type="curve" smooth="yes"/>
      <point x="66" y="419"/>
      <point x="75" y="411"/>
      <point x="99" y="411" type="curve" smooth="yes"/>
      <point x="123" y="411"/>
      <point x="176" y="421"/>
      <point x="209" y="425" type="curve" smooth="yes"/>
      <point x="274" y="431" type="line"/>
      <point x="279" y="455" type="line"/>
      <point x="217" y="462" type="line" smooth="yes"/>
      <point x="185" y="466"/>
      <point x="136" y="475"/>
      <point x="112" y="475" type="curve" smooth="yes"/>
      <point x="84" y="475"/>
      <point x="66" y="464"/>
    </contour>
    <contour>
      <point x="178" y="-82" type="curve" smooth="yes"/>
      <point x="200" y="-82"/>
      <point x="213" y="-68"/>
      <point x="217" y="-45" type="curve" smooth="yes"/>
      <point x="224" y="-15"/>
      <point x="224" y="26"/>
      <point x="228" y="69" type="curve" smooth="yes"/>
      <point x="233" y="133" type="line"/>
      <point x="209" y="133" type="line"/>
      <point x="191" y="69" type="line" smooth="yes"/>
      <point x="178" y="27"/>
      <point x="150" y="-35"/>
      <point x="150" y="-57" type="curve" smooth="yes"/>
      <point x="150" y="-75"/>
      <point x="161" y="-82"/>
    </contour>
    <contour>
      <point x="274" y="288" type="curve" smooth="yes"/>
      <point x="284" y="344"/>
      <point x="285" y="373"/>
      <point x="285" y="443" type="curve"/>
      <point x="268" y="443" type="line"/>
      <point x="242" y="374"/>
      <point x="233" y="342"/>
      <point x="224" y="288" type="curve" smooth="yes"/>
      <point x="215" y="237"/>
      <point x="213" y="207"/>
      <point x="213" y="133" type="curve"/>
      <point x="230" y="133" type="line"/>
      <point x="255" y="201"/>
      <point x="264" y="238"/>
    </contour>
    <contour>
      <point x="432" y="140" type="curve" smooth="yes"/>
      <point x="432" y="157"/>
      <point x="423" y="165"/>
      <point x="399" y="165" type="curve" smooth="yes"/>
      <point x="375" y="165"/>
      <point x="322" y="155"/>
      <point x="288" y="151" type="curve" smooth="yes"/>
      <point x="224" y="145" type="line"/>
      <point x="218" y="121" type="line"/>
      <point x="281" y="114" type="line" smooth="yes"/>
      <point x="312" y="110"/>
      <point x="362" y="101"/>
      <point x="386" y="101" type="curve" smooth="yes"/>
      <point x="414" y="101"/>
      <point x="432" y="112"/>
    </contour>
    <contour>
      <point x="320" y="659" type="curve" smooth="yes"/>
      <point x="298" y="659"/>
      <point x="285" y="644"/>
      <point x="281" y="621" type="curve" smooth="yes"/>
      <point x="274" y="592"/>
      <point x="274" y="550"/>
      <point x="270" y="506" type="curve" smooth="yes"/>
      <point x="264" y="443" type="line"/>
      <point x="288" y="443" type="line"/>
      <point x="307" y="506" type="line" smooth="yes"/>
      <point x="320" y="549"/>
      <point x="347" y="612"/>
      <point x="347" y="634" type="curve" smooth="yes"/>
      <point x="347" y="652"/>
      <point x="336" y="659"/>
    </contour>
    <contour>
      <point x="483" y="452" type="curve" smooth="yes"/>
      <point x="483" y="467"/>
      <point x="472" y="475"/>
      <point x="448" y="475" type="curve" smooth="yes"/>
      <point x="426" y="475"/>
      <point x="377" y="465"/>
      <point x="344" y="461" type="curve" smooth="yes"/>
      <point x="279" y="455" type="line"/>
      <point x="274" y="431" type="line"/>
      <point x="336" y="424" type="line" smooth="yes"/>
      <point x="368" y="420"/>
      <point x="414" y="411"/>
      <point x="436" y="411" type="curve" smooth="yes"/>
      <point x="467" y="411"/>
      <point x="483" y="427"/>
    </contour>
  </outline>
</glyph>
<glyph name="fraction" format="2">
  <advance width="79"/>
  <unicode hex="2044"/>
  <outline>
    <contour>
      <point x="-144" y="-13" type="line"/>
      <point x="312" y="589" type="line"/>
      <point x="282" y="612" type="line"/>
      <point x="-174" y="9" type="line"/>
    </contour>
  </outline>
</glyph>
<glyph name="trademark" format="2">
  <advance width="679"/>
  <unicode hex="2122"/>
  <outline>
    <contour>
      <point x="101" y="540" type="line"/>
      <point x="134" y="540" type="line"/>
      <point x="160" y="616" type="line"/>
      <point x="126" y="593" type="line"/>
      <point x="339" y="593" type="line"/>
      <point x="314" y="616" type="line"/>
      <point x="311" y="540" type="line"/>
      <point x="345" y="540" type="line"/>
      <point x="357" y="616" type="line"/>
      <point x="115" y="616" type="line"/>
    </contour>
    <contour>
      <point x="117" y="345" type="line"/>
      <point x="257" y="345" type="line"/>
      <point x="262" y="368" type="line"/>
      <point x="201" y="373" type="line"/>
      <point x="184" y="373" type="line"/>
      <point x="122" y="368" type="line"/>
    </contour>
    <contour>
      <point x="157" y="345" type="line"/>
      <point x="218" y="345" type="line"/>
      <point x="267" y="616" type="line"/>
      <point x="207" y="616" type="line"/>
    </contour>
    <contour>
      <point x="326" y="345" type="line"/>
      <point x="430" y="345" type="line"/>
      <point x="434" y="368" type="line"/>
      <point x="391" y="373" type="line"/>
      <point x="375" y="373" type="line"/>
      <point x="331" y="368" type="line"/>
    </contour>
    <contour>
      <point x="365" y="345" type="line"/>
      <point x="391" y="345" type="line"/>
      <point x="452" y="616" type="line"/>
      <point x="428" y="616" type="line"/>
    </contour>
    <contour>
      <point x="564" y="345" type="line"/>
      <point x="695" y="345" type="line"/>
      <point x="699" y="368" type="line"/>
      <point x="640" y="374" type="line"/>
      <point x="628" y="374" type="line"/>
      <point x="568" y="368" type="line"/>
    </contour>
    <contour>
      <point x="599" y="345" type="line"/>
      <point x="660" y="345" type="line"/>
      <point x="699" y="616" type="line"/>
      <point x="655" y="616" type="line"/>
      <point x="634" y="585" type="line"/>
    </contour>
    <contour>
      <point x="660" y="588" type="line"/>
      <point x="674" y="588" type="line"/>
      <point x="732" y="594" type="line"/>
      <point x="736" y="616" type="line"/>
      <point x="664" y="616" type="line"/>
    </contour>
    <contour>
      <point x="486" y="345" type="line"/>
      <point x="509" y="345" type="line"/>
      <point x="668" y="616" type="line"/>
      <point x="641" y="616" type="line"/>
      <point x="527" y="422" type="line"/>
      <point x="484" y="616" type="line"/>
      <point x="394" y="616" type="line"/>
      <point x="390" y="594" type="line"/>
      <point x="429" y="590" type="line"/>
    </contour>
  </outline>
</glyph>
<glyph name="partialdiff" format="2">
  <advance width="485"/>
  <unicode hex="2202"/>
  <outline>
    <contour>
      <point x="199" y="-11" type="curve" smooth="yes"/>
      <point x="347" y="-11"/>
      <point x="448" y="149"/>
      <point x="448" y="366" type="curve" smooth="yes"/>
      <point x="448" y="522"/>
      <point x="350" y="607"/>
      <point x="254" y="607" type="curve" smooth="yes"/>
      <point x="202" y="607"/>
      <point x="164" y="593"/>
      <point x="128" y="573" type="curve"/>
      <point x="137" y="545" type="line"/>
      <point x="172" y="559"/>
      <point x="192" y="565"/>
      <point x="223" y="565" type="curve" smooth="yes"/>
      <point x="309" y="565"/>
      <point x="375" y="510"/>
      <point x="375" y="352" type="curve" smooth="yes"/>
      <point x="375" y="134"/>
      <point x="290" y="24"/>
      <point x="213" y="24" type="curve" smooth="yes"/>
      <point x="166" y="24"/>
      <point x="125" y="70"/>
      <point x="125" y="150" type="curve" smooth="yes"/>
      <point x="125" y="265"/>
      <point x="194" y="332"/>
      <point x="264" y="332" type="curve" smooth="yes"/>
      <point x="309" y="332"/>
      <point x="347" y="313"/>
      <point x="382" y="278" type="curve"/>
      <point x="391" y="302" type="line"/>
      <point x="367" y="349"/>
      <point x="319" y="373"/>
      <point x="260" y="373" type="curve" smooth="yes"/>
      <point x="143" y="373"/>
      <point x="51" y="274"/>
      <point x="51" y="144" type="curve" smooth="yes"/>
      <point x="51" y="43"/>
      <point x="116" y="-11"/>
    </contour>
  </outline>
</glyph>
<glyph name="Delta" format="2">
  <advance width="557"/>
  <unicode hex="2206"/>
  <outline>
    <contour>
      <point x="11" y="0" type="line"/>
      <point x="500" y="0" type="line"/>
      <point x="511" y="58" type="line"/>
      <point x="396" y="616" type="line"/>
      <point x="344" y="616" type="line"/>
      <point x="23" y="58" type="line"/>
    </contour>
    <contour>
      <point x="64" y="40" type="line"/>
      <point x="345" y="553" type="line"/>
      <point x="331" y="556" type="line"/>
      <point x="436" y="37" type="line"/>
      <point x="454" y="60" type="line"/>
      <point x="50" y="60" type="line"/>
    </contour>
  </outline>
</glyph>
<glyph name="summation" format="2">
  <advance width="542"/>
  <unicode hex="2211"/>
  <outline>
    <contour>
      <point x="464" y="452" type="line"/>
      <point x="519" y="452" type="line"/>
      <point x="512" y="616" type="line"/>
      <point x="109" y="616" type="line"/>
      <point x="109" y="570" type="line"/>
      <point x="480" y="570" type="line"/>
      <point x="429" y="616" type="line"/>
    </contour>
    <contour>
      <point x="57" y="-119" type="line"/>
      <point x="532" y="-119" type="line"/>
      <point x="540" y="71" type="line"/>
      <point x="484" y="71" type="line"/>
      <point x="449" y="-92" type="line"/>
      <point x="500" y="-51" type="line"/>
      <point x="103" y="-51" type="line"/>
      <point x="115" y="-69" type="line"/>
      <point x="361" y="255" type="line"/>
      <point x="138" y="616" type="line"/>
      <point x="70" y="616" type="line"/>
      <point x="70" y="575" type="line"/>
      <point x="302" y="213" type="line"/>
      <point x="302" y="258" type="line"/>
      <point x="57" y="-64" type="line"/>
    </contour>
  </outline>
</glyph>
<glyph name="bulletoperator" format="2">
  <advance width="276"/>
  <unicode hex="2219"/>
  <outline>
    <contour>
      <point x="167" y="241" type="curve" smooth="yes"/>
      <point x="202" y="241"/>
      <point x="230" y="268"/>
      <point x="230" y="304" type="curve" smooth="yes"/>
      <point x="230" y="333"/>
      <point x="209" y="356"/>
      <point x="178" y="356" type="curve" smooth="yes"/>
      <point x="143" y="356"/>
      <point x="113" y="330"/>
      <point x="113" y="294" type="curve" smooth="yes"/>
      <point x="113" y="264"/>
      <point x="136" y="241"/>
    </contour>
  </outline>
</glyph>
<glyph name="infinity" format="2">
  <advance width="733"/>
  <unicode hex="221E"/>
  <outline>
    <contour>
      <point x="368" y="268" type="curve" smooth="yes"/>
      <point x="414" y="209"/>
      <point x="470" y="151"/>
      <point x="551" y="151" type="curve" smooth="yes"/>
      <point x="637" y="151"/>
      <point x="696" y="218"/>
      <point x="696" y="307" type="curve" smooth="yes"/>
      <point x="696" y="392"/>
      <point x="638" y="453"/>
      <point x="562" y="453" type="curve" smooth="yes"/>
      <point x="500" y="453"/>
      <point x="441" y="417"/>
      <point x="388" y="324" type="curve"/>
      <point x="401" y="294" type="line"/>
      <point x="456" y="367"/>
      <point x="486" y="399"/>
      <point x="554" y="399" type="curve" smooth="yes"/>
      <point x="609" y="399"/>
      <point x="653" y="359"/>
      <point x="653" y="302" type="curve" smooth="yes"/>
      <point x="653" y="253"/>
      <point x="620" y="218"/>
      <point x="563" y="218" type="curve" smooth="yes"/>
      <point x="508" y="218"/>
      <point x="461" y="275"/>
      <point x="414" y="336" type="curve" smooth="yes"/>
      <point x="368" y="395"/>
      <point x="312" y="453"/>
      <point x="231" y="453" type="curve" smooth="yes"/>
      <point x="145" y="453"/>
      <point x="86" y="386"/>
      <point x="86" y="298" type="curve" smooth="yes"/>
      <point x="86" y="212"/>
      <point x="144" y="151"/>
      <point x="220" y="151" type="curve" smooth="yes"/>
      <point x="282" y="151"/>
      <point x="340" y="187"/>
      <point x="394" y="281" type="curve"/>
      <point x="381" y="310" type="line"/>
      <point x="326" y="238"/>
      <point x="296" y="206"/>
      <point x="228" y="206" type="curve" smooth="yes"/>
      <point x="173" y="206"/>
      <point x="129" y="245"/>
      <point x="129" y="302" type="curve" smooth="yes"/>
      <point x="129" y="351"/>
      <point x="162" y="387"/>
      <point x="218" y="387" type="curve" smooth="yes"/>
      <point x="274" y="387"/>
      <point x="321" y="330"/>
    </contour>
  </outline>
</glyph>
<glyph name="lessequal" format="2">
  <advance width="487"/>
  <unicode hex="2264"/>
  <outline>
    <contour>
      <point x="453" y="0" type="line"/>
      <point x="453" y="47" type="line"/>
      <point x="45" y="47" type="line"/>
      <point x="45" y="0" type="line"/>
    </contour>
    <contour>
      <point x="68" y="274" type="line"/>
      <point x="411" y="96" type="line"/>
      <point x="437" y="141" type="line"/>
      <point x="119" y="300" type="line"/>
      <point x="119" y="287" type="line"/>
      <point x="437" y="447" type="line"/>
      <point x="411" y="492" type="line"/>
      <point x="68" y="314" type="line"/>
    </contour>
  </outline>
</glyph>
<glyph name="uniA4D0" format="2">
  <advance width="489"/>
  <unicode hex="A4D0"/>
  <outline>
    <contour>
      <point x="235" y="247" type="curve" smooth="yes"/>
      <point x="401" y="247"/>
      <point x="485" y="312"/>
      <point x="485" y="401" type="curve" smooth="yes"/>
      <point x="485" y="473"/>
      <point x="420" y="538"/>
      <point x="280" y="538" type="curve" smooth="yes"/>
      <point x="208" y="538"/>
      <point x="152" y="518"/>
      <point x="119" y="500" type="curve" smooth="yes"/>
      <point x="107" y="493"/>
      <point x="100" y="487"/>
      <point x="100" y="476" type="curve" smooth="yes"/>
      <point x="100" y="466"/>
      <point x="103" y="459"/>
      <point x="107" y="452" type="curve" smooth="yes"/>
      <point x="111" y="445"/>
      <point x="120" y="442"/>
      <point x="126" y="442" type="curve" smooth="yes"/>
      <point x="131" y="442"/>
      <point x="137" y="443"/>
      <point x="143" y="446" type="curve" smooth="yes"/>
      <point x="164" y="457"/>
      <point x="219" y="485"/>
      <point x="264" y="485" type="curve" smooth="yes"/>
      <point x="380" y="485"/>
      <point x="424" y="450"/>
      <point x="424" y="395" type="curve" smooth="yes"/>
      <point x="424" y="334"/>
      <point x="364" y="295"/>
      <point x="258" y="295" type="curve" smooth="yes"/>
      <point x="230" y="295"/>
      <point x="199" y="296"/>
      <point x="173" y="299" type="curve"/>
      <point x="152" y="251" type="line"/>
      <point x="172" y="248"/>
      <point x="197" y="247"/>
    </contour>
    <contour>
      <point x="91" y="22" type="curve" smooth="yes"/>
      <point x="105" y="22"/>
      <point x="116" y="30"/>
      <point x="122" y="47" type="curve" smooth="yes"/>
      <point x="128" y="63"/>
      <point x="134" y="79"/>
      <point x="142" y="104" type="curve" smooth="yes"/>
      <point x="165" y="177"/>
      <point x="195" y="270"/>
      <point x="231" y="366" type="curve" smooth="yes"/>
      <point x="247" y="409"/>
      <point x="251" y="421"/>
      <point x="263" y="453" type="curve" smooth="yes"/>
      <point x="267" y="463"/>
      <point x="270" y="471"/>
      <point x="270" y="477" type="curve" smooth="yes"/>
      <point x="270" y="486"/>
      <point x="255" y="497"/>
      <point x="243" y="497" type="curve" smooth="yes"/>
      <point x="227" y="497"/>
      <point x="218" y="494"/>
      <point x="212" y="487" type="curve" smooth="yes"/>
      <point x="208" y="483"/>
      <point x="205" y="475"/>
      <point x="199" y="459" type="curve" smooth="yes"/>
      <point x="194" y="445"/>
      <point x="188" y="427"/>
      <point x="180" y="403" type="curve" smooth="yes"/>
      <point x="150" y="313"/>
      <point x="120" y="229"/>
      <point x="88" y="140" type="curve" smooth="yes"/>
      <point x="75" y="104"/>
      <point x="71" y="89"/>
      <point x="61" y="61" type="curve" smooth="yes"/>
      <point x="59" y="56"/>
      <point x="58" y="49"/>
      <point x="58" y="42" type="curve" smooth="yes"/>
      <point x="58" y="35"/>
      <point x="63" y="22"/>
    </contour>
    <contour>
      <point x="180" y="245" type="curve" smooth="yes"/>
      <point x="315" y="245"/>
      <point x="378" y="208"/>
      <point x="378" y="149" type="curve" smooth="yes"/>
      <point x="378" y="72"/>
      <point x="280" y="43"/>
      <point x="191" y="43" type="curve" smooth="yes"/>
      <point x="142" y="43"/>
      <point x="84" y="53"/>
      <point x="34" y="70" type="curve" smooth="yes"/>
      <point x="25" y="73"/>
      <point x="18" y="74"/>
      <point x="12" y="74" type="curve" smooth="yes"/>
      <point x="6" y="74"/>
      <point x="-3" y="70"/>
      <point x="-7" y="64" type="curve" smooth="yes"/>
      <point x="-13" y="56"/>
      <point x="-16" y="48"/>
      <point x="-16" y="38" type="curve" smooth="yes"/>
      <point x="-16" y="28"/>
      <point x="-12" y="22"/>
      <point x="2" y="17" type="curve" smooth="yes"/>
      <point x="55" y="-1"/>
      <point x="112" y="-10"/>
      <point x="182" y="-10" type="curve" smooth="yes"/>
      <point x="325" y="-10"/>
      <point x="439" y="38"/>
      <point x="439" y="153" type="curve" smooth="yes"/>
      <point x="439" y="220"/>
      <point x="352" y="290"/>
      <point x="206" y="290" type="curve" smooth="yes"/>
      <point x="187" y="290"/>
      <point x="173" y="290"/>
      <point x="159" y="290" type="curve"/>
      <point x="137" y="244" type="line"/>
      <point x="151" y="245"/>
      <point x="168" y="245"/>
    </contour>
  </outline>
</glyph>
<glyph name="uniA4D2" format="2">
  <advance width="496"/>
  <unicode hex="A4D2"/>
  <outline>
    <contour>
      <point x="379" y="323" type="line"/>
      <point x="351" y="331"/>
      <point x="294" y="337"/>
      <point x="270" y="337" type="curve" smooth="yes"/>
      <point x="115" y="337"/>
      <point x="32" y="248"/>
      <point x="32" y="141" type="curve" smooth="yes"/>
      <point x="32" y="61"/>
      <point x="110" y="-10"/>
      <point x="229" y="-10" type="curve" smooth="yes"/>
      <point x="293" y="-10"/>
      <point x="339" y="1"/>
      <point x="368" y="14" type="curve" smooth="yes"/>
      <point x="404" y="30"/>
      <point x="422" y="44"/>
      <point x="422" y="65" type="curve" smooth="yes"/>
      <point x="422" y="75"/>
      <point x="416" y="91"/>
      <point x="402" y="91" type="curve" smooth="yes"/>
      <point x="397" y="91"/>
      <point x="379" y="85"/>
      <point x="364" y="77" type="curve" smooth="yes"/>
      <point x="353" y="71"/>
      <point x="331" y="61"/>
      <point x="305" y="53" type="curve" smooth="yes"/>
      <point x="286" y="47"/>
      <point x="264" y="43"/>
      <point x="243" y="43" type="curve" smooth="yes"/>
      <point x="150" y="43"/>
      <point x="93" y="82"/>
      <point x="93" y="151" type="curve" smooth="yes"/>
      <point x="93" y="226"/>
      <point x="167" y="284"/>
      <point x="263" y="284" type="curve" smooth="yes"/>
      <point x="289" y="284"/>
      <point x="333" y="282"/>
      <point x="357" y="278" type="curve"/>
    </contour>
    <contour>
      <point x="297" y="38" type="curve" smooth="yes"/>
      <point x="314" y="38"/>
      <point x="321" y="41"/>
      <point x="327" y="48" type="curve" smooth="yes"/>
      <point x="331" y="52"/>
      <point x="334" y="60"/>
      <point x="336" y="67" type="curve" smooth="yes"/>
      <point x="344" y="90"/>
      <point x="348" y="102"/>
      <point x="356" y="126" type="curve" smooth="yes"/>
      <point x="386" y="216"/>
      <point x="416" y="300"/>
      <point x="448" y="389" type="curve" smooth="yes"/>
      <point x="461" y="425"/>
      <point x="473" y="455"/>
      <point x="486" y="493" type="curve" smooth="yes"/>
      <point x="488" y="499"/>
      <point x="490" y="505"/>
      <point x="490" y="512" type="curve" smooth="yes"/>
      <point x="490" y="520"/>
      <point x="483" y="532"/>
      <point x="455" y="532" type="curve" smooth="yes"/>
      <point x="434" y="532"/>
      <point x="423" y="523"/>
      <point x="418" y="506" type="curve" smooth="yes"/>
      <point x="413" y="490"/>
      <point x="406" y="463"/>
      <point x="394" y="425" type="curve" smooth="yes"/>
      <point x="371" y="352"/>
      <point x="340" y="259"/>
      <point x="304" y="163" type="curve" smooth="yes"/>
      <point x="288" y="120"/>
      <point x="285" y="115"/>
      <point x="274" y="83" type="curve" smooth="yes"/>
      <point x="269" y="70"/>
      <point x="268" y="64"/>
      <point x="268" y="58" type="curve" smooth="yes"/>
      <point x="268" y="49"/>
      <point x="283" y="38"/>
    </contour>
  </outline>
</glyph>
<glyph name="uniA4D4" format="2">
  <advance width="527"/>
  <unicode hex="A4D4"/>
  <outline>
    <contour>
      <point x="103" y="489" type="curve" smooth="yes"/>
      <point x="110" y="478"/>
      <point x="121" y="474"/>
      <point x="149" y="474" type="curve" smooth="yes"/>
      <point x="189" y="474"/>
      <point x="294" y="476"/>
      <point x="353" y="476" type="curve" smooth="yes"/>
      <point x="423" y="476"/>
      <point x="536" y="475"/>
      <point x="557" y="475" type="curve" smooth="yes"/>
      <point x="573" y="475"/>
      <point x="592" y="476"/>
      <point x="596" y="478" type="curve" smooth="yes"/>
      <point x="600" y="480"/>
      <point x="604" y="485"/>
      <point x="604" y="496" type="curve" smooth="yes"/>
      <point x="604" y="505"/>
      <point x="602" y="511"/>
      <point x="597" y="518" type="curve" smooth="yes"/>
      <point x="593" y="523"/>
      <point x="589" y="527"/>
      <point x="583" y="529" type="curve" smooth="yes"/>
      <point x="575" y="532"/>
      <point x="557" y="533"/>
      <point x="543" y="533" type="curve" smooth="yes"/>
      <point x="516" y="533"/>
      <point x="402" y="532"/>
      <point x="368" y="532" type="curve" smooth="yes"/>
      <point x="288" y="532"/>
      <point x="147" y="532"/>
      <point x="130" y="532" type="curve" smooth="yes"/>
      <point x="116" y="532"/>
      <point x="108" y="531"/>
      <point x="104" y="528" type="curve" smooth="yes"/>
      <point x="100" y="525"/>
      <point x="96" y="521"/>
      <point x="96" y="512" type="curve" smooth="yes"/>
      <point x="96" y="503"/>
      <point x="99" y="495"/>
    </contour>
    <contour>
      <point x="183" y="-9" type="curve" smooth="yes"/>
      <point x="208" y="-9"/>
      <point x="219" y="0"/>
      <point x="224" y="17" type="curve" smooth="yes"/>
      <point x="229" y="33"/>
      <point x="238" y="66"/>
      <point x="250" y="104" type="curve" smooth="yes"/>
      <point x="273" y="177"/>
      <point x="303" y="270"/>
      <point x="339" y="366" type="curve" smooth="yes"/>
      <point x="355" y="409"/>
      <point x="375" y="453"/>
      <point x="386" y="487" type="curve" smooth="yes"/>
      <point x="391" y="502"/>
      <point x="392" y="506"/>
      <point x="392" y="508" type="curve" smooth="yes"/>
      <point x="392" y="519"/>
      <point x="376" y="530"/>
      <point x="357" y="530" type="curve" smooth="yes"/>
      <point x="343" y="530"/>
      <point x="334" y="527"/>
      <point x="329" y="520" type="curve" smooth="yes"/>
      <point x="325" y="515"/>
      <point x="321" y="507"/>
      <point x="316" y="494" type="curve" smooth="yes"/>
      <point x="306" y="470"/>
      <point x="297" y="436"/>
      <point x="286" y="403" type="curve" smooth="yes"/>
      <point x="256" y="313"/>
      <point x="227" y="229"/>
      <point x="195" y="140" type="curve" smooth="yes"/>
      <point x="182" y="104"/>
      <point x="168" y="68"/>
      <point x="158" y="39" type="curve" smooth="yes"/>
      <point x="153" y="24"/>
      <point x="151" y="18"/>
      <point x="151" y="11" type="curve" smooth="yes"/>
      <point x="151" y="3"/>
      <point x="158" y="-9"/>
    </contour>
  </outline>
</glyph>
<glyph name="uniA4D5" format="2">
  <advance width="526"/>
  <unicode hex="A4D5"/>
  <outline>
    <contour>
      <point x="347" y="-4" type="curve" smooth="yes"/>
      <point x="384" y="-4"/>
      <point x="397" y="-6"/>
      <point x="435" y="-6" type="curve" smooth="yes"/>
      <point x="445" y="-6"/>
      <point x="455" y="0"/>
      <point x="455" y="14" type="curve" smooth="yes"/>
      <point x="455" y="22"/>
      <point x="451" y="33"/>
      <point x="445" y="38" type="curve" smooth="yes"/>
      <point x="437" y="45"/>
      <point x="426" y="48"/>
      <point x="411" y="50" type="curve" smooth="yes"/>
      <point x="385" y="53"/>
      <point x="371" y="54"/>
      <point x="321" y="54" type="curve" smooth="yes"/>
      <point x="278" y="54"/>
      <point x="64" y="50"/>
      <point x="37" y="50" type="curve" smooth="yes"/>
      <point x="21" y="50"/>
      <point x="4" y="51"/>
      <point x="-11" y="51" type="curve" smooth="yes"/>
      <point x="-23" y="51"/>
      <point x="-33" y="50"/>
      <point x="-39" y="46" type="curve" smooth="yes"/>
      <point x="-45" y="42"/>
      <point x="-49" y="34"/>
      <point x="-49" y="28" type="curve" smooth="yes"/>
      <point x="-49" y="6"/>
      <point x="-22" y="-8"/>
      <point x="20" y="-8" type="curve" smooth="yes"/>
      <point x="82" y="-8"/>
      <point x="283" y="-4"/>
    </contour>
    <contour>
      <point x="198" y="-2" type="curve" smooth="yes"/>
      <point x="223" y="-2"/>
      <point x="234" y="7"/>
      <point x="239" y="24" type="curve" smooth="yes"/>
      <point x="244" y="40"/>
      <point x="253" y="68"/>
      <point x="265" y="106" type="curve" smooth="yes"/>
      <point x="288" y="179"/>
      <point x="318" y="272"/>
      <point x="354" y="368" type="curve" smooth="yes"/>
      <point x="370" y="411"/>
      <point x="390" y="455"/>
      <point x="404" y="498" type="curve" smooth="yes"/>
      <point x="406" y="504"/>
      <point x="407" y="508"/>
      <point x="407" y="510" type="curve" smooth="yes"/>
      <point x="407" y="521"/>
      <point x="391" y="532"/>
      <point x="372" y="532" type="curve" smooth="yes"/>
      <point x="358" y="532"/>
      <point x="349" y="529"/>
      <point x="344" y="522" type="curve" smooth="yes"/>
      <point x="340" y="517"/>
      <point x="336" y="510"/>
      <point x="334" y="505" type="curve" smooth="yes"/>
      <point x="321" y="472"/>
      <point x="312" y="438"/>
      <point x="301" y="405" type="curve" smooth="yes"/>
      <point x="271" y="315"/>
      <point x="242" y="231"/>
      <point x="210" y="142" type="curve" smooth="yes"/>
      <point x="197" y="106"/>
      <point x="183" y="70"/>
      <point x="170" y="32" type="curve" smooth="yes"/>
      <point x="169" y="29"/>
      <point x="166" y="20"/>
      <point x="166" y="15" type="curve" smooth="yes"/>
      <point x="166" y="10"/>
      <point x="173" y="-2"/>
    </contour>
  </outline>
</glyph>
<glyph name="uniA4D9" format="2">
  <advance width="443"/>
  <unicode hex="A4D9"/>
  <outline>
    <contour>
      <point x="383" y="287" type="curve" smooth="yes"/>
      <point x="428" y="412"/>
      <point x="443" y="454"/>
      <point x="453" y="487" type="curve" smooth="yes"/>
      <point x="456" y="498"/>
      <point x="458" y="507"/>
      <point x="458" y="512" type="curve" smooth="yes"/>
      <point x="458" y="522"/>
      <point x="448" y="532"/>
      <point x="424" y="532" type="curve" smooth="yes"/>
      <point x="399" y="532"/>
      <point x="391" y="523"/>
      <point x="387" y="506" type="curve" smooth="yes"/>
      <point x="383" y="490"/>
      <point x="373" y="453"/>
      <point x="361" y="415" type="curve" smooth="yes"/>
      <point x="332" y="323"/>
      <point x="297" y="226"/>
      <point x="267" y="156" type="curve" smooth="yes"/>
      <point x="239" y="90"/>
      <point x="201" y="50"/>
      <point x="157" y="50" type="curve" smooth="yes"/>
      <point x="114" y="50"/>
      <point x="86" y="80"/>
      <point x="72" y="119" type="curve" smooth="yes"/>
      <point x="66" y="137"/>
      <point x="64" y="155"/>
      <point x="59" y="165" type="curve" smooth="yes"/>
      <point x="56" y="171"/>
      <point x="48" y="174"/>
      <point x="38" y="174" type="curve" smooth="yes"/>
      <point x="15" y="174"/>
      <point x="-2" y="158"/>
      <point x="-2" y="142" type="curve" smooth="yes"/>
      <point x="-2" y="124"/>
      <point x="3" y="105"/>
      <point x="12" y="85" type="curve" smooth="yes"/>
      <point x="34" y="34"/>
      <point x="88" y="-10"/>
      <point x="148" y="-10" type="curve" smooth="yes"/>
      <point x="213" y="-10"/>
      <point x="259" y="21"/>
      <point x="292" y="73" type="curve" smooth="yes"/>
      <point x="322" y="120"/>
      <point x="348" y="190"/>
    </contour>
  </outline>
</glyph>
<glyph name="uniA4DF" format="2">
  <advance width="664"/>
  <unicode hex="A4DF"/>
  <outline>
    <contour>
      <point x="335" y="183" type="curve" smooth="yes"/>
      <point x="335" y="193"/>
      <point x="334" y="202"/>
      <point x="332" y="212" type="curve" smooth="yes"/>
      <point x="311" y="317"/>
      <point x="280" y="416"/>
      <point x="271" y="473" type="curve" smooth="yes"/>
      <point x="268" y="492"/>
      <point x="266" y="505"/>
      <point x="265" y="512" type="curve" smooth="yes"/>
      <point x="263" y="525"/>
      <point x="247" y="529"/>
      <point x="235" y="529" type="curve" smooth="yes"/>
      <point x="225" y="529"/>
      <point x="222" y="528"/>
      <point x="219" y="526" type="curve" smooth="yes"/>
      <point x="214" y="522"/>
      <point x="213" y="513"/>
      <point x="213" y="500" type="curve" smooth="yes"/>
      <point x="213" y="488"/>
      <point x="216" y="473"/>
      <point x="219" y="458" type="curve" smooth="yes"/>
      <point x="228" y="413"/>
      <point x="264" y="278"/>
      <point x="283" y="179" type="curve" smooth="yes"/>
      <point x="286" y="163"/>
      <point x="295" y="160"/>
      <point x="303" y="160" type="curve" smooth="yes"/>
      <point x="310" y="160"/>
      <point x="318" y="163"/>
      <point x="324" y="167" type="curve" smooth="yes"/>
      <point x="328" y="170"/>
      <point x="335" y="176"/>
    </contour>
    <contour>
      <point x="587" y="506" type="curve" smooth="yes"/>
      <point x="540" y="452"/>
      <point x="396" y="322"/>
      <point x="319" y="228" type="curve" smooth="yes"/>
      <point x="303" y="209"/>
      <point x="296" y="198"/>
      <point x="294" y="194" type="curve" smooth="yes"/>
      <point x="291" y="188"/>
      <point x="290" y="184"/>
      <point x="290" y="179" type="curve" smooth="yes"/>
      <point x="290" y="175"/>
      <point x="291" y="170"/>
      <point x="293" y="168" type="curve" smooth="yes"/>
      <point x="298" y="163"/>
      <point x="302" y="160"/>
      <point x="312" y="160" type="curve" smooth="yes"/>
      <point x="322" y="160"/>
      <point x="331" y="164"/>
      <point x="337" y="169" type="curve" smooth="yes"/>
      <point x="346" y="177"/>
      <point x="353" y="184"/>
      <point x="363" y="196" type="curve" smooth="yes"/>
      <point x="424" y="271"/>
      <point x="578" y="408"/>
      <point x="613" y="471" type="curve" smooth="yes"/>
      <point x="631" y="504"/>
      <point x="631" y="511"/>
      <point x="631" y="517" type="curve" smooth="yes"/>
      <point x="631" y="523"/>
      <point x="626" y="531"/>
      <point x="617" y="531" type="curve" smooth="yes"/>
      <point x="613" y="531"/>
      <point x="610" y="529"/>
      <point x="607" y="527" type="curve" smooth="yes"/>
      <point x="602" y="523"/>
      <point x="594" y="514"/>
    </contour>
    <contour>
      <point x="49" y="-9" type="curve" smooth="yes"/>
      <point x="72" y="-9"/>
      <point x="82" y="0"/>
      <point x="88" y="17" type="curve" smooth="yes"/>
      <point x="94" y="33"/>
      <point x="103" y="66"/>
      <point x="116" y="104" type="curve" smooth="yes"/>
      <point x="141" y="177"/>
      <point x="173" y="270"/>
      <point x="213" y="366" type="curve" smooth="yes"/>
      <point x="231" y="409"/>
      <point x="249" y="455"/>
      <point x="263" y="498" type="curve" smooth="yes"/>
      <point x="264" y="501"/>
      <point x="265" y="509"/>
      <point x="265" y="512" type="curve" smooth="yes"/>
      <point x="265" y="523"/>
      <point x="251" y="534"/>
      <point x="234" y="534" type="curve" smooth="yes"/>
      <point x="219" y="534"/>
      <point x="211" y="531"/>
      <point x="206" y="524" type="curve" smooth="yes"/>
      <point x="202" y="519"/>
      <point x="198" y="510"/>
      <point x="196" y="505" type="curve" smooth="yes"/>
      <point x="183" y="472"/>
      <point x="173" y="436"/>
      <point x="161" y="403" type="curve" smooth="yes"/>
      <point x="127" y="313"/>
      <point x="95" y="229"/>
      <point x="61" y="140" type="curve" smooth="yes"/>
      <point x="47" y="104"/>
      <point x="34" y="68"/>
      <point x="21" y="30" type="curve" smooth="yes"/>
      <point x="19" y="24"/>
      <point x="17" y="18"/>
      <point x="17" y="11" type="curve" smooth="yes"/>
      <point x="17" y="3"/>
      <point x="23" y="-9"/>
    </contour>
    <contour>
      <point x="466" y="-9" type="curve" smooth="yes"/>
      <point x="495" y="-9"/>
      <point x="506" y="0"/>
      <point x="511" y="17" type="curve" smooth="yes"/>
      <point x="516" y="33"/>
      <point x="526" y="66"/>
      <point x="538" y="104" type="curve" smooth="yes"/>
      <point x="561" y="177"/>
      <point x="589" y="271"/>
      <point x="619" y="366" type="curve" smooth="yes"/>
      <point x="633" y="409"/>
      <point x="652" y="455"/>
      <point x="666" y="498" type="curve" smooth="yes"/>
      <point x="668" y="504"/>
      <point x="669" y="509"/>
      <point x="669" y="512" type="curve" smooth="yes"/>
      <point x="669" y="523"/>
      <point x="653" y="534"/>
      <point x="631" y="534" type="curve" smooth="yes"/>
      <point x="616" y="534"/>
      <point x="609" y="529"/>
      <point x="607" y="527" type="curve" smooth="yes"/>
      <point x="604" y="524"/>
      <point x="598" y="503"/>
      <point x="597" y="498" type="curve" smooth="yes"/>
      <point x="588" y="465"/>
      <point x="579" y="435"/>
      <point x="569" y="403" type="curve" smooth="yes"/>
      <point x="540" y="313"/>
      <point x="512" y="227"/>
      <point x="481" y="140" type="curve" smooth="yes"/>
      <point x="468" y="104"/>
      <point x="455" y="68"/>
      <point x="442" y="30" type="curve" smooth="yes"/>
      <point x="440" y="24"/>
      <point x="438" y="18"/>
      <point x="438" y="11" type="curve" smooth="yes"/>
      <point x="438" y="3"/>
      <point x="444" y="-9"/>
    </contour>
  </outline>
</glyph>
<glyph name="uniA4E3" format="2">
  <advance width="506"/>
  <unicode hex="A4E3"/>
  <guideline x="461" y="284" angle="71"/>
  <outline>
    <contour>
      <point x="386" y="-9" type="curve" smooth="yes"/>
      <point x="408" y="-9"/>
      <point x="424" y="-2"/>
      <point x="424" y="9" type="curve" smooth="yes"/>
      <point x="424" y="18"/>
      <point x="422" y="32"/>
      <point x="412" y="59" type="curve" smooth="yes"/>
      <point x="385" y="131"/>
      <point x="336" y="224"/>
      <point x="286" y="279" type="curve"/>
      <point x="232" y="248" type="line"/>
      <point x="285" y="188"/>
      <point x="317" y="122"/>
      <point x="344" y="51" type="curve" smooth="yes"/>
      <point x="353" y="27"/>
      <point x="353" y="9"/>
      <point x="361" y="0" type="curve" smooth="yes"/>
      <point x="367" y="-7"/>
      <point x="369" y="-9"/>
    </contour>
    <contour>
      <point x="82" y="-9" type="curve" smooth="yes"/>
      <point x="101" y="-9"/>
      <point x="112" y="0"/>
      <point x="117" y="17" type="curve" smooth="yes"/>
      <point x="122" y="33"/>
      <point x="131" y="66"/>
      <point x="143" y="104" type="curve" smooth="yes"/>
      <point x="166" y="177"/>
      <point x="196" y="270"/>
      <point x="231" y="366" type="curve" smooth="yes"/>
      <point x="247" y="409"/>
      <point x="251" y="421"/>
      <point x="263" y="453" type="curve" smooth="yes"/>
      <point x="267" y="463"/>
      <point x="270" y="471"/>
      <point x="270" y="477" type="curve" smooth="yes"/>
      <point x="270" y="486"/>
      <point x="255" y="497"/>
      <point x="243" y="497" type="curve" smooth="yes"/>
      <point x="227" y="497"/>
      <point x="218" y="494"/>
      <point x="212" y="487" type="curve" smooth="yes"/>
      <point x="208" y="483"/>
      <point x="205" y="475"/>
      <point x="199" y="459" type="curve" smooth="yes"/>
      <point x="194" y="445"/>
      <point x="188" y="427"/>
      <point x="180" y="403" type="curve" smooth="yes"/>
      <point x="150" y="313"/>
      <point x="121" y="229"/>
      <point x="89" y="140" type="curve" smooth="yes"/>
      <point x="76" y="104"/>
      <point x="62" y="68"/>
      <point x="49" y="30" type="curve" smooth="yes"/>
      <point x="47" y="24"/>
      <point x="45" y="18"/>
      <point x="45" y="11" type="curve" smooth="yes"/>
      <point x="45" y="3"/>
      <point x="52" y="-9"/>
    </contour>
    <contour>
      <point x="155" y="234" type="line"/>
      <point x="192" y="229"/>
      <point x="211" y="228"/>
      <point x="249" y="228" type="curve" smooth="yes"/>
      <point x="398" y="228"/>
      <point x="491" y="292"/>
      <point x="491" y="401" type="curve" smooth="yes"/>
      <point x="491" y="481"/>
      <point x="420" y="538"/>
      <point x="284" y="538" type="curve" smooth="yes"/>
      <point x="212" y="538"/>
      <point x="152" y="518"/>
      <point x="119" y="500" type="curve" smooth="yes"/>
      <point x="107" y="493"/>
      <point x="100" y="487"/>
      <point x="100" y="476" type="curve" smooth="yes"/>
      <point x="100" y="466"/>
      <point x="103" y="459"/>
      <point x="107" y="452" type="curve" smooth="yes"/>
      <point x="111" y="445"/>
      <point x="120" y="442"/>
      <point x="126" y="442" type="curve" smooth="yes"/>
      <point x="131" y="442"/>
      <point x="137" y="443"/>
      <point x="143" y="446" type="curve" smooth="yes"/>
      <point x="164" y="457"/>
      <point x="219" y="485"/>
      <point x="264" y="485" type="curve" smooth="yes"/>
      <point x="371" y="485"/>
      <point x="430" y="451"/>
      <point x="430" y="395" type="curve" smooth="yes"/>
      <point x="430" y="328"/>
      <point x="357" y="281"/>
      <point x="262" y="281" type="curve" smooth="yes"/>
      <point x="234" y="281"/>
      <point x="210" y="282"/>
      <point x="177" y="284" type="curve"/>
    </contour>
  </outline>
</glyph>
<glyph name="uniA4E5" format="2">
  <advance width="508"/>
  <unicode hex="A4E5"/>
  <outline>
    <contour>
      <point x="81" y="74" type="curve" smooth="yes"/>
      <point x="130" y="169"/>
      <point x="226" y="311"/>
      <point x="267" y="366" type="curve" smooth="yes"/>
      <point x="300" y="411"/>
      <point x="332" y="444"/>
      <point x="341" y="444" type="curve" smooth="yes"/>
      <point x="352" y="444"/>
      <point x="356" y="408"/>
      <point x="356" y="371" type="curve" smooth="yes"/>
      <point x="356" y="282"/>
      <point x="354" y="119"/>
      <point x="351" y="60" type="curve" smooth="yes"/>
      <point x="350" y="31"/>
      <point x="350" y="25"/>
      <point x="350" y="20" type="curve" smooth="yes"/>
      <point x="350" y="1"/>
      <point x="362" y="-8"/>
      <point x="378" y="-8" type="curve" smooth="yes"/>
      <point x="404" y="-8"/>
      <point x="413" y="2"/>
      <point x="414" y="41" type="curve" smooth="yes"/>
      <point x="417" y="125"/>
      <point x="418" y="199"/>
      <point x="418" y="260" type="curve" smooth="yes"/>
      <point x="418" y="312"/>
      <point x="417" y="351"/>
      <point x="415" y="387" type="curve" smooth="yes"/>
      <point x="409" y="501"/>
      <point x="394" y="534"/>
      <point x="371" y="534" type="curve" smooth="yes"/>
      <point x="333" y="534"/>
      <point x="283" y="484"/>
      <point x="220" y="400" type="curve" smooth="yes"/>
      <point x="162" y="323"/>
      <point x="89" y="216"/>
      <point x="6" y="71" type="curve" smooth="yes"/>
      <point x="-9" y="45"/>
      <point x="-21" y="23"/>
      <point x="-21" y="13" type="curve" smooth="yes"/>
      <point x="-21" y="1"/>
      <point x="-16" y="-8"/>
      <point x="8" y="-8" type="curve" smooth="yes"/>
      <point x="22" y="-8"/>
      <point x="38" y="-4"/>
      <point x="51" y="18" type="curve" smooth="yes"/>
      <point x="58" y="30"/>
      <point x="67" y="47"/>
    </contour>
  </outline>
</glyph>
<glyph name="uniA4E7" format="2">
  <advance width="591"/>
  <unicode hex="A4E7"/>
  <outline>
    <contour>
      <point x="149" y="271" type="curve" smooth="yes"/>
      <point x="149" y="253"/>
      <point x="169" y="239"/>
      <point x="193" y="239" type="curve" smooth="yes"/>
      <point x="233" y="239"/>
      <point x="352" y="243"/>
      <point x="398" y="243" type="curve" smooth="yes"/>
      <point x="435" y="243"/>
      <point x="457" y="241"/>
      <point x="500" y="241" type="curve" smooth="yes"/>
      <point x="526" y="241"/>
      <point x="548" y="250"/>
      <point x="548" y="271" type="curve" smooth="yes"/>
      <point x="548" y="289"/>
      <point x="524" y="299"/>
      <point x="488" y="299" type="curve" smooth="yes"/>
      <point x="452" y="299"/>
      <point x="430" y="297"/>
      <point x="395" y="297" type="curve" smooth="yes"/>
      <point x="337" y="297"/>
      <point x="245" y="293"/>
      <point x="205" y="293" type="curve" smooth="yes"/>
      <point x="176" y="293"/>
      <point x="149" y="287"/>
    </contour>
    <contour>
      <point x="53" y="-9" type="curve" smooth="yes"/>
      <point x="78" y="-9"/>
      <point x="89" y="0"/>
      <point x="94" y="17" type="curve" smooth="yes"/>
      <point x="99" y="33"/>
      <point x="108" y="66"/>
      <point x="120" y="104" type="curve" smooth="yes"/>
      <point x="143" y="177"/>
      <point x="173" y="270"/>
      <point x="209" y="366" type="curve" smooth="yes"/>
      <point x="225" y="409"/>
      <point x="245" y="453"/>
      <point x="259" y="496" type="curve" smooth="yes"/>
      <point x="261" y="502"/>
      <point x="262" y="506"/>
      <point x="262" y="510" type="curve" smooth="yes"/>
      <point x="262" y="521"/>
      <point x="246" y="532"/>
      <point x="227" y="532" type="curve" smooth="yes"/>
      <point x="213" y="532"/>
      <point x="204" y="529"/>
      <point x="199" y="522" type="curve" smooth="yes"/>
      <point x="195" y="517"/>
      <point x="191" y="508"/>
      <point x="189" y="503" type="curve" smooth="yes"/>
      <point x="176" y="470"/>
      <point x="167" y="436"/>
      <point x="156" y="403" type="curve" smooth="yes"/>
      <point x="126" y="313"/>
      <point x="97" y="229"/>
      <point x="65" y="140" type="curve" smooth="yes"/>
      <point x="52" y="104"/>
      <point x="38" y="68"/>
      <point x="25" y="30" type="curve" smooth="yes"/>
      <point x="23" y="24"/>
      <point x="21" y="18"/>
      <point x="21" y="11" type="curve" smooth="yes"/>
      <point x="21" y="3"/>
      <point x="28" y="-9"/>
    </contour>
    <contour>
      <point x="383" y="-9" type="curve" smooth="yes"/>
      <point x="408" y="-9"/>
      <point x="419" y="0"/>
      <point x="424" y="17" type="curve" smooth="yes"/>
      <point x="429" y="33"/>
      <point x="438" y="66"/>
      <point x="450" y="104" type="curve" smooth="yes"/>
      <point x="473" y="177"/>
      <point x="503" y="270"/>
      <point x="539" y="366" type="curve" smooth="yes"/>
      <point x="555" y="409"/>
      <point x="575" y="453"/>
      <point x="589" y="496" type="curve" smooth="yes"/>
      <point x="591" y="502"/>
      <point x="592" y="506"/>
      <point x="592" y="510" type="curve" smooth="yes"/>
      <point x="592" y="521"/>
      <point x="576" y="532"/>
      <point x="557" y="532" type="curve" smooth="yes"/>
      <point x="543" y="532"/>
      <point x="534" y="529"/>
      <point x="529" y="522" type="curve" smooth="yes"/>
      <point x="525" y="517"/>
      <point x="521" y="508"/>
      <point x="519" y="503" type="curve" smooth="yes"/>
      <point x="506" y="470"/>
      <point x="497" y="436"/>
      <point x="486" y="403" type="curve" smooth="yes"/>
      <point x="456" y="313"/>
      <point x="427" y="229"/>
      <point x="395" y="140" type="curve" smooth="yes"/>
      <point x="382" y="104"/>
      <point x="368" y="68"/>
      <point x="355" y="30" type="curve" smooth="yes"/>
      <point x="353" y="24"/>
      <point x="351" y="18"/>
      <point x="351" y="11" type="curve" smooth="yes"/>
      <point x="351" y="3"/>
      <point x="358" y="-9"/>
    </contour>
  </outline>
</glyph>
<glyph name="uniA4E8" format="2">
  <advance width="512"/>
  <unicode hex="A4E8"/>
  <outline>
    <contour>
      <point x="226" y="50" type="curve" smooth="yes"/>
      <point x="178" y="50"/>
      <point x="146" y="95"/>
      <point x="135" y="127" type="curve" smooth="yes"/>
      <point x="127" y="150"/>
      <point x="121" y="164"/>
      <point x="105" y="164" type="curve" smooth="yes"/>
      <point x="94" y="164"/>
      <point x="66" y="147"/>
      <point x="66" y="128" type="curve" smooth="yes"/>
      <point x="66" y="94"/>
      <point x="92" y="57"/>
      <point x="103" y="45" type="curve" smooth="yes"/>
      <point x="131" y="14"/>
      <point x="162" y="-10"/>
      <point x="214" y="-10" type="curve" smooth="yes"/>
      <point x="384" y="-10"/>
      <point x="497" y="200"/>
      <point x="497" y="368" type="curve" smooth="yes"/>
      <point x="497" y="464"/>
      <point x="433" y="538"/>
      <point x="334" y="538" type="curve" smooth="yes"/>
      <point x="231" y="538"/>
      <point x="147" y="444"/>
      <point x="126" y="368" type="curve" smooth="yes"/>
      <point x="123" y="359"/>
      <point x="122" y="351"/>
      <point x="122" y="344" type="curve" smooth="yes"/>
      <point x="122" y="321"/>
      <point x="135" y="314"/>
      <point x="157" y="314" type="curve" smooth="yes"/>
      <point x="170" y="314"/>
      <point x="175" y="318"/>
      <point x="181" y="330" type="curve" smooth="yes"/>
      <point x="184" y="336"/>
      <point x="188" y="353"/>
      <point x="194" y="370" type="curve" smooth="yes"/>
      <point x="211" y="419"/>
      <point x="268" y="478"/>
      <point x="326" y="478" type="curve" smooth="yes"/>
      <point x="397" y="478"/>
      <point x="436" y="425"/>
      <point x="436" y="357" type="curve" smooth="yes"/>
      <point x="436" y="218"/>
      <point x="332" y="50"/>
    </contour>
    <contour>
      <point x="64" y="341" type="curve" smooth="yes"/>
      <point x="60" y="334"/>
      <point x="58" y="321"/>
      <point x="58" y="315" type="curve" smooth="yes"/>
      <point x="58" y="303"/>
      <point x="61" y="298"/>
      <point x="66" y="296" type="curve" smooth="yes"/>
      <point x="70" y="294"/>
      <point x="78" y="293"/>
      <point x="87" y="293" type="curve" smooth="yes"/>
      <point x="113" y="293"/>
      <point x="124" y="295"/>
      <point x="167" y="295" type="curve" smooth="yes"/>
      <point x="184" y="295"/>
      <point x="193" y="294"/>
      <point x="219" y="294" type="curve" smooth="yes"/>
      <point x="224" y="294"/>
      <point x="242" y="294"/>
      <point x="248" y="297" type="curve" smooth="yes"/>
      <point x="255" y="300"/>
      <point x="260" y="304"/>
      <point x="267" y="318" type="curve" smooth="yes"/>
      <point x="271" y="327"/>
      <point x="272" y="334"/>
      <point x="272" y="339" type="curve" smooth="yes"/>
      <point x="272" y="344"/>
      <point x="271" y="347"/>
      <point x="268" y="350" type="curve" smooth="yes"/>
      <point x="263" y="355"/>
      <point x="253" y="358"/>
      <point x="238" y="358" type="curve" smooth="yes"/>
      <point x="202" y="358"/>
      <point x="180" y="356"/>
      <point x="151" y="356" type="curve" smooth="yes"/>
      <point x="134" y="356"/>
      <point x="130" y="357"/>
      <point x="100" y="357" type="curve" smooth="yes"/>
      <point x="81" y="357"/>
      <point x="72" y="354"/>
    </contour>
  </outline>
</glyph>
<glyph name="uniA4E9" format="2">
  <advance width="459"/>
  <unicode hex="A4E9"/>
  <outline>
    <contour>
      <point x="106" y="236" type="curve" smooth="yes"/>
      <point x="61" y="111"/>
      <point x="46" y="69"/>
      <point x="36" y="36" type="curve" smooth="yes"/>
      <point x="33" y="25"/>
      <point x="32" y="19"/>
      <point x="33" y="12" type="curve" smooth="yes"/>
      <point x="34" y="4"/>
      <point x="43" y="-9"/>
      <point x="65" y="-9" type="curve" smooth="yes"/>
      <point x="88" y="-9"/>
      <point x="97" y="5"/>
      <point x="102" y="22" type="curve" smooth="yes"/>
      <point x="107" y="38"/>
      <point x="116" y="70"/>
      <point x="128" y="108" type="curve" smooth="yes"/>
      <point x="157" y="200"/>
      <point x="193" y="302"/>
      <point x="223" y="372" type="curve" smooth="yes"/>
      <point x="251" y="436"/>
      <point x="287" y="478"/>
      <point x="333" y="478" type="curve" smooth="yes"/>
      <point x="377" y="478"/>
      <point x="404" y="448"/>
      <point x="414" y="418" type="curve" smooth="yes"/>
      <point x="423" y="391"/>
      <point x="422" y="383"/>
      <point x="426" y="372" type="curve" smooth="yes"/>
      <point x="429" y="363"/>
      <point x="438" y="354"/>
      <point x="450" y="354" type="curve" smooth="yes"/>
      <point x="478" y="354"/>
      <point x="490" y="370"/>
      <point x="490" y="385" type="curve" smooth="yes"/>
      <point x="490" y="404"/>
      <point x="483" y="424"/>
      <point x="475" y="444" type="curve" smooth="yes"/>
      <point x="455" y="495"/>
      <point x="405" y="538"/>
      <point x="337" y="538" type="curve" smooth="yes"/>
      <point x="279" y="538"/>
      <point x="232" y="507"/>
      <point x="199" y="455" type="curve" smooth="yes"/>
      <point x="169" y="408"/>
      <point x="141" y="333"/>
    </contour>
  </outline>
</glyph>
<glyph name="uniA4EA" format="2">
  <advance width="660"/>
  <unicode hex="A4EA"/>
  <outline>
    <contour>
      <point x="153" y="80" type="curve"/>
      <point x="148" y="80"/>
      <point x="144" y="85"/>
      <point x="144" y="103" type="curve" smooth="yes"/>
      <point x="144" y="115"/>
      <point x="146" y="133"/>
      <point x="150" y="159" type="curve" smooth="yes"/>
      <point x="164" y="247"/>
      <point x="197" y="399"/>
      <point x="214" y="477" type="curve" smooth="yes"/>
      <point x="215" y="482"/>
      <point x="219" y="502"/>
      <point x="219" y="508" type="curve" smooth="yes"/>
      <point x="219" y="526"/>
      <point x="201" y="532"/>
      <point x="185" y="532" type="curve" smooth="yes"/>
      <point x="162" y="532"/>
      <point x="151" y="522"/>
      <point x="145" y="489" type="curve" smooth="yes"/>
      <point x="130" y="405"/>
      <point x="119" y="345"/>
      <point x="108" y="284" type="curve" smooth="yes"/>
      <point x="96" y="218"/>
      <point x="82" y="137"/>
      <point x="82" y="95" type="curve" smooth="yes"/>
      <point x="82" y="36"/>
      <point x="98" y="-10"/>
      <point x="129" y="-10" type="curve" smooth="yes"/>
      <point x="138" y="-10"/>
      <point x="158" y="44"/>
      <point x="158" y="67" type="curve" smooth="yes"/>
      <point x="158" y="74"/>
      <point x="157" y="80"/>
    </contour>
    <contour>
      <point x="129" y="-10" type="curve"/>
      <point x="167" y="-10"/>
      <point x="206" y="32"/>
      <point x="254" y="118" type="curve" smooth="yes"/>
      <point x="296" y="193"/>
      <point x="311" y="221"/>
      <point x="379" y="353" type="curve" smooth="yes"/>
      <point x="392" y="378"/>
      <point x="405" y="403"/>
      <point x="405" y="408" type="curve" smooth="yes"/>
      <point x="405" y="415"/>
      <point x="404" y="425"/>
      <point x="390" y="425" type="curve" smooth="yes"/>
      <point x="370" y="425"/>
      <point x="362" y="417"/>
      <point x="356" y="408" type="curve" smooth="yes"/>
      <point x="341" y="384"/>
      <point x="336" y="376"/>
      <point x="320" y="348" type="curve" smooth="yes"/>
      <point x="280" y="278"/>
      <point x="242" y="205"/>
      <point x="207" y="147" type="curve" smooth="yes"/>
      <point x="187" y="114"/>
      <point x="161" y="80"/>
      <point x="153" y="80" type="curve" smooth="yes"/>
      <point x="140" y="80"/>
      <point x="126" y="24"/>
      <point x="126" y="0" type="curve" smooth="yes"/>
      <point x="126" y="-6"/>
      <point x="127" y="-10"/>
    </contour>
    <contour>
      <point x="419" y="80" type="curve"/>
      <point x="410" y="80"/>
      <point x="408" y="95"/>
      <point x="408" y="129" type="curve" smooth="yes"/>
      <point x="408" y="191"/>
      <point x="414" y="290"/>
      <point x="419" y="355" type="curve" smooth="yes"/>
      <point x="421" y="383"/>
      <point x="421" y="392"/>
      <point x="421" y="398" type="curve" smooth="yes"/>
      <point x="421" y="412"/>
      <point x="412" y="425"/>
      <point x="393" y="425" type="curve" smooth="yes"/>
      <point x="387" y="425"/>
      <point x="383" y="421"/>
      <point x="381" y="418" type="curve" smooth="yes"/>
      <point x="379" y="414"/>
      <point x="377" y="403"/>
      <point x="374" y="383" type="curve" smooth="yes"/>
      <point x="369" y="347"/>
      <point x="366" y="310"/>
      <point x="361" y="268" type="curve" smooth="yes"/>
      <point x="355" y="216"/>
      <point x="353" y="162"/>
      <point x="353" y="137" type="curve" smooth="yes"/>
      <point x="353" y="22"/>
      <point x="372" y="-10"/>
      <point x="395" y="-10" type="curve"/>
      <point x="397" y="-10"/>
      <point x="424" y="48"/>
      <point x="424" y="70" type="curve" smooth="yes"/>
      <point x="424" y="75"/>
      <point x="423" y="80"/>
    </contour>
    <contour>
      <point x="395" y="-10" type="curve"/>
      <point x="426" y="-10"/>
      <point x="473" y="21"/>
      <point x="520" y="109" type="curve" smooth="yes"/>
      <point x="566" y="194"/>
      <point x="606" y="299"/>
      <point x="675" y="448" type="curve" smooth="yes"/>
      <point x="693" y="487"/>
      <point x="701" y="505"/>
      <point x="701" y="516" type="curve" smooth="yes"/>
      <point x="701" y="527"/>
      <point x="688" y="532"/>
      <point x="674" y="532" type="curve" smooth="yes"/>
      <point x="654" y="532"/>
      <point x="633" y="524"/>
      <point x="626" y="509" type="curve" smooth="yes"/>
      <point x="614" y="484"/>
      <point x="604" y="460"/>
      <point x="593" y="431" type="curve" smooth="yes"/>
      <point x="538" y="287"/>
      <point x="492" y="194"/>
      <point x="462" y="134" type="curve" smooth="yes"/>
      <point x="445" y="99"/>
      <point x="431" y="80"/>
      <point x="419" y="80" type="curve" smooth="yes"/>
      <point x="403" y="80"/>
      <point x="393" y="23"/>
      <point x="393" y="0" type="curve" smooth="yes"/>
      <point x="393" y="-6"/>
      <point x="394" y="-10"/>
    </contour>
  </outline>
</glyph>
<glyph name="uniA4EC" format="2">
  <advance width="485"/>
  <unicode hex="A4EC"/>
  <outline>
    <contour>
      <point x="163" y="-10" type="curve" smooth="yes"/>
      <point x="143" y="-10"/>
      <point x="133" y="-3"/>
      <point x="133" y="8" type="curve" smooth="yes"/>
      <point x="133" y="17"/>
      <point x="138" y="32"/>
      <point x="146" y="52" type="curve" smooth="yes"/>
      <point x="157" y="80"/>
      <point x="202" y="193"/>
      <point x="225" y="247" type="curve"/>
      <point x="271" y="287"/>
      <point x="388" y="391"/>
      <point x="466" y="489" type="curve" smooth="yes"/>
      <point x="477" y="503"/>
      <point x="488" y="517"/>
      <point x="497" y="524" type="curve" smooth="yes"/>
      <point x="504" y="530"/>
      <point x="514" y="532"/>
      <point x="526" y="532" type="curve" smooth="yes"/>
      <point x="550" y="532"/>
      <point x="557" y="522"/>
      <point x="557" y="511" type="curve" smooth="yes"/>
      <point x="557" y="500"/>
      <point x="540" y="478"/>
      <point x="526" y="461" type="curve" smooth="yes"/>
      <point x="474" y="399"/>
      <point x="382" y="309"/>
      <point x="322" y="253" type="curve" smooth="yes"/>
      <point x="295" y="227"/>
      <point x="279" y="215"/>
      <point x="275" y="208" type="curve" smooth="yes"/>
      <point x="249" y="161"/>
      <point x="229" y="80"/>
      <point x="204" y="18" type="curve" smooth="yes"/>
      <point x="196" y="-2"/>
      <point x="184" y="-10"/>
    </contour>
    <contour>
      <point x="234" y="200" type="curve" smooth="yes"/>
      <point x="226" y="200"/>
      <point x="216" y="206"/>
      <point x="214" y="212" type="curve" smooth="yes"/>
      <point x="212" y="217"/>
      <point x="207" y="238"/>
      <point x="197" y="264" type="curve" smooth="yes"/>
      <point x="166" y="341"/>
      <point x="143" y="410"/>
      <point x="131" y="454" type="curve" smooth="yes"/>
      <point x="124" y="478"/>
      <point x="120" y="497"/>
      <point x="120" y="507" type="curve" smooth="yes"/>
      <point x="120" y="524"/>
      <point x="137" y="532"/>
      <point x="156" y="532" type="curve" smooth="yes"/>
      <point x="174" y="532"/>
      <point x="179" y="524"/>
      <point x="181" y="516" type="curve" smooth="yes"/>
      <point x="185" y="503"/>
      <point x="186" y="490"/>
      <point x="191" y="473" type="curve" smooth="yes"/>
      <point x="206" y="416"/>
      <point x="221" y="371"/>
      <point x="247" y="306" type="curve" smooth="yes"/>
      <point x="257" y="282"/>
      <point x="266" y="256"/>
      <point x="266" y="243" type="curve" smooth="yes"/>
      <point x="266" y="217"/>
      <point x="243" y="200"/>
    </contour>
  </outline>
</glyph>
<glyph name="uniA4ED" format="2">
  <advance width="487"/>
  <unicode hex="A4ED"/>
  <outline>
    <contour>
      <point x="352" y="242" type="line"/>
      <point x="319" y="245"/>
      <point x="300" y="246"/>
      <point x="272" y="246" type="curve" smooth="yes"/>
      <point x="175" y="246"/>
      <point x="86" y="209"/>
      <point x="86" y="138" type="curve" smooth="yes"/>
      <point x="86" y="83"/>
      <point x="143" y="43"/>
      <point x="236" y="43" type="curve" smooth="yes"/>
      <point x="258" y="43"/>
      <point x="282" y="48"/>
      <point x="302" y="54" type="curve" smooth="yes"/>
      <point x="317" y="58"/>
      <point x="347" y="72"/>
      <point x="357" y="77" type="curve" smooth="yes"/>
      <point x="372" y="85"/>
      <point x="384" y="91"/>
      <point x="395" y="91" type="curve" smooth="yes"/>
      <point x="409" y="91"/>
      <point x="415" y="75"/>
      <point x="415" y="65" type="curve" smooth="yes"/>
      <point x="415" y="44"/>
      <point x="397" y="30"/>
      <point x="361" y="14" type="curve" smooth="yes"/>
      <point x="332" y="1"/>
      <point x="286" y="-10"/>
      <point x="222" y="-10" type="curve" smooth="yes"/>
      <point x="93" y="-10"/>
      <point x="25" y="60"/>
      <point x="25" y="130" type="curve" smooth="yes"/>
      <point x="25" y="236"/>
      <point x="131" y="295"/>
      <point x="286" y="295" type="curve" smooth="yes"/>
      <point x="304" y="295"/>
      <point x="341" y="292"/>
      <point x="373" y="287" type="curve"/>
    </contour>
    <contour>
      <point x="290" y="38" type="curve" smooth="yes"/>
      <point x="277" y="38"/>
      <point x="261" y="49"/>
      <point x="261" y="58" type="curve" smooth="yes"/>
      <point x="261" y="64"/>
      <point x="262" y="70"/>
      <point x="267" y="83" type="curve" smooth="yes"/>
      <point x="279" y="115"/>
      <point x="287" y="137"/>
      <point x="293" y="154" type="curve" smooth="yes"/>
      <point x="327" y="247"/>
      <point x="364" y="357"/>
      <point x="387" y="426" type="curve" smooth="yes"/>
      <point x="395" y="450"/>
      <point x="400" y="465"/>
      <point x="405" y="481" type="curve" smooth="yes"/>
      <point x="411" y="499"/>
      <point x="421" y="507"/>
      <point x="437" y="507" type="curve" smooth="yes"/>
      <point x="466" y="507"/>
      <point x="473" y="495"/>
      <point x="473" y="487" type="curve" smooth="yes"/>
      <point x="473" y="480"/>
      <point x="471" y="474"/>
      <point x="469" y="468" type="curve" smooth="yes"/>
      <point x="456" y="431"/>
      <point x="453" y="425"/>
      <point x="440" y="390" type="curve" smooth="yes"/>
      <point x="407" y="302"/>
      <point x="377" y="216"/>
      <point x="349" y="126" type="curve" smooth="yes"/>
      <point x="341" y="102"/>
      <point x="336" y="87"/>
      <point x="330" y="67" type="curve" smooth="yes"/>
      <point x="323" y="44"/>
      <point x="314" y="38"/>
    </contour>
    <contour>
      <point x="389" y="298" type="curve"/>
      <point x="366" y="250" type="line"/>
      <point x="351" y="250"/>
      <point x="344" y="250"/>
      <point x="325" y="250" type="curve" smooth="yes"/>
      <point x="212" y="250"/>
      <point x="114" y="317"/>
      <point x="114" y="385" type="curve" smooth="yes"/>
      <point x="114" y="457"/>
      <point x="179" y="538"/>
      <point x="357" y="538" type="curve" smooth="yes"/>
      <point x="420" y="538"/>
      <point x="468" y="533"/>
      <point x="512" y="522" type="curve" smooth="yes"/>
      <point x="535" y="516"/>
      <point x="541" y="510"/>
      <point x="541" y="498" type="curve" smooth="yes"/>
      <point x="541" y="486"/>
      <point x="537" y="478"/>
      <point x="532" y="472" type="curve" smooth="yes"/>
      <point x="528" y="467"/>
      <point x="520" y="462"/>
      <point x="509" y="462" type="curve" smooth="yes"/>
      <point x="497" y="462"/>
      <point x="407" y="485"/>
      <point x="349" y="485" type="curve" smooth="yes"/>
      <point x="232" y="485"/>
      <point x="175" y="440"/>
      <point x="175" y="391" type="curve" smooth="yes"/>
      <point x="175" y="342"/>
      <point x="231" y="296"/>
      <point x="351" y="296" type="curve" smooth="yes"/>
      <point x="363" y="296"/>
      <point x="375" y="296"/>
    </contour>
  </outline>
</glyph>
<glyph name="uniA4EE" format="2">
  <advance width="501"/>
  <unicode hex="A4EE"/>
  <outline>
    <contour>
      <point x="81" y="74" type="curve" smooth="yes"/>
      <point x="130" y="169"/>
      <point x="226" y="311"/>
      <point x="267" y="366" type="curve" smooth="yes"/>
      <point x="300" y="411"/>
      <point x="332" y="444"/>
      <point x="341" y="444" type="curve" smooth="yes"/>
      <point x="352" y="444"/>
      <point x="356" y="408"/>
      <point x="356" y="371" type="curve" smooth="yes"/>
      <point x="356" y="282"/>
      <point x="354" y="119"/>
      <point x="351" y="60" type="curve" smooth="yes"/>
      <point x="350" y="31"/>
      <point x="350" y="25"/>
      <point x="350" y="20" type="curve" smooth="yes"/>
      <point x="350" y="1"/>
      <point x="362" y="-8"/>
      <point x="378" y="-8" type="curve" smooth="yes"/>
      <point x="404" y="-8"/>
      <point x="413" y="2"/>
      <point x="414" y="41" type="curve" smooth="yes"/>
      <point x="417" y="125"/>
      <point x="418" y="199"/>
      <point x="418" y="260" type="curve" smooth="yes"/>
      <point x="418" y="312"/>
      <point x="417" y="351"/>
      <point x="415" y="387" type="curve" smooth="yes"/>
      <point x="409" y="501"/>
      <point x="394" y="534"/>
      <point x="371" y="534" type="curve" smooth="yes"/>
      <point x="333" y="534"/>
      <point x="283" y="484"/>
      <point x="220" y="400" type="curve" smooth="yes"/>
      <point x="162" y="323"/>
      <point x="89" y="216"/>
      <point x="6" y="71" type="curve" smooth="yes"/>
      <point x="-9" y="45"/>
      <point x="-21" y="23"/>
      <point x="-21" y="13" type="curve" smooth="yes"/>
      <point x="-21" y="1"/>
      <point x="-16" y="-8"/>
      <point x="8" y="-8" type="curve" smooth="yes"/>
      <point x="22" y="-8"/>
      <point x="38" y="-4"/>
      <point x="51" y="18" type="curve" smooth="yes"/>
      <point x="58" y="30"/>
      <point x="67" y="47"/>
    </contour>
    <contour>
      <point x="108" y="168" type="curve" smooth="yes"/>
      <point x="108" y="150"/>
      <point x="120" y="136"/>
      <point x="144" y="136" type="curve" smooth="yes"/>
      <point x="184" y="136"/>
      <point x="281" y="136"/>
      <point x="327" y="136" type="curve" smooth="yes"/>
      <point x="364" y="136"/>
      <point x="366" y="133"/>
      <point x="389" y="133" type="curve" smooth="yes"/>
      <point x="433" y="133"/>
      <point x="460" y="147"/>
      <point x="460" y="163" type="curve" smooth="yes"/>
      <point x="460" y="187"/>
      <point x="443" y="192"/>
      <point x="424" y="192" type="curve" smooth="yes"/>
      <point x="368" y="192"/>
      <point x="359" y="191"/>
      <point x="324" y="191" type="curve" smooth="yes"/>
      <point x="265" y="191"/>
      <point x="204" y="188"/>
      <point x="164" y="188" type="curve" smooth="yes"/>
      <point x="135" y="188"/>
      <point x="108" y="181"/>
    </contour>
  </outline>
</glyph>
<glyph name="uniA4F0" format="2">
  <advance width="483"/>
  <unicode hex="A4F0"/>
  <outline>
    <contour>
      <point x="218" y="530" type="curve" smooth="yes"/>
      <point x="191" y="530"/>
      <point x="169" y="530"/>
      <point x="150" y="528" type="curve" smooth="yes"/>
      <point x="140" y="527"/>
      <point x="132" y="524"/>
      <point x="128" y="516" type="curve" smooth="yes"/>
      <point x="125" y="509"/>
      <point x="125" y="505"/>
      <point x="125" y="501" type="curve" smooth="yes"/>
      <point x="125" y="496"/>
      <point x="128" y="489"/>
      <point x="132" y="485" type="curve" smooth="yes"/>
      <point x="137" y="479"/>
      <point x="144" y="476"/>
      <point x="159" y="475" type="curve" smooth="yes"/>
      <point x="185" y="473"/>
      <point x="252" y="473"/>
      <point x="302" y="473" type="curve" smooth="yes"/>
      <point x="362" y="473"/>
      <point x="404" y="474"/>
      <point x="431" y="474" type="curve" smooth="yes"/>
      <point x="447" y="474"/>
      <point x="465" y="473"/>
      <point x="480" y="473" type="curve" smooth="yes"/>
      <point x="492" y="473"/>
      <point x="502" y="475"/>
      <point x="508" y="480" type="curve" smooth="yes"/>
      <point x="515" y="485"/>
      <point x="518" y="494"/>
      <point x="518" y="500" type="curve" smooth="yes"/>
      <point x="518" y="520"/>
      <point x="496" y="532"/>
      <point x="459" y="532" type="curve" smooth="yes"/>
      <point x="397" y="532"/>
      <point x="282" y="530"/>
    </contour>
    <contour>
      <point x="134" y="119" type="curve" smooth="yes"/>
      <point x="159" y="193"/>
      <point x="185" y="267"/>
      <point x="219" y="363" type="curve" smooth="yes"/>
      <point x="234" y="406"/>
      <point x="253" y="451"/>
      <point x="267" y="494" type="curve" smooth="yes"/>
      <point x="269" y="500"/>
      <point x="270" y="503"/>
      <point x="270" y="507" type="curve" smooth="yes"/>
      <point x="270" y="518"/>
      <point x="254" y="529"/>
      <point x="242" y="529" type="curve" smooth="yes"/>
      <point x="225" y="529"/>
      <point x="217" y="525"/>
      <point x="211" y="519" type="curve" smooth="yes"/>
      <point x="207" y="515"/>
      <point x="203" y="506"/>
      <point x="201" y="501" type="curve" smooth="yes"/>
      <point x="188" y="468"/>
      <point x="179" y="433"/>
      <point x="168" y="400" type="curve" smooth="yes"/>
      <point x="138" y="310"/>
      <point x="107" y="229"/>
      <point x="76" y="140" type="curve" smooth="yes"/>
      <point x="69" y="119"/>
      <point x="48" y="54"/>
      <point x="48" y="40" type="curve" smooth="yes"/>
      <point x="48" y="15"/>
      <point x="66" y="2"/>
      <point x="88" y="-2" type="curve" smooth="yes"/>
      <point x="110" y="-6"/>
      <point x="139" y="-6"/>
      <point x="163" y="-6" type="curve" smooth="yes"/>
      <point x="200" y="-6"/>
      <point x="250" y="-4"/>
      <point x="277" y="-4" type="curve" smooth="yes"/>
      <point x="298" y="-4"/>
      <point x="331" y="-5"/>
      <point x="342" y="-5" type="curve" smooth="yes"/>
      <point x="381" y="-5"/>
      <point x="393" y="4"/>
      <point x="393" y="16" type="curve" smooth="yes"/>
      <point x="393" y="26"/>
      <point x="387" y="35"/>
      <point x="380" y="41" type="curve" smooth="yes"/>
      <point x="372" y="47"/>
      <point x="358" y="54"/>
      <point x="331" y="54" type="curve" smooth="yes"/>
      <point x="290" y="54"/>
      <point x="213" y="52"/>
      <point x="173" y="52" type="curve" smooth="yes"/>
      <point x="167" y="52"/>
      <point x="152" y="52"/>
      <point x="142" y="53" type="curve" smooth="yes"/>
      <point x="131" y="54"/>
      <point x="123" y="63"/>
      <point x="123" y="72" type="curve" smooth="yes"/>
      <point x="123" y="79"/>
      <point x="129" y="104"/>
    </contour>
    <contour>
      <point x="411" y="282" type="curve" smooth="yes"/>
      <point x="404" y="292"/>
      <point x="394" y="296"/>
      <point x="364" y="296" type="curve" smooth="yes"/>
      <point x="327" y="296"/>
      <point x="287" y="297"/>
      <point x="253" y="297" type="curve" smooth="yes"/>
      <point x="208" y="297"/>
      <point x="166" y="298"/>
      <point x="133" y="298" type="curve" smooth="yes"/>
      <point x="107" y="298"/>
      <point x="90" y="292"/>
      <point x="90" y="268" type="curve" smooth="yes"/>
      <point x="90" y="255"/>
      <point x="102" y="248"/>
      <point x="109" y="245" type="curve" smooth="yes"/>
      <point x="115" y="242"/>
      <point x="133" y="242"/>
      <point x="138" y="242" type="curve" smooth="yes"/>
      <point x="174" y="242"/>
      <point x="203" y="243"/>
      <point x="238" y="243" type="curve" smooth="yes"/>
      <point x="295" y="243"/>
      <point x="336" y="243"/>
      <point x="356" y="243" type="curve" smooth="yes"/>
      <point x="386" y="243"/>
      <point x="401" y="246"/>
      <point x="408" y="253" type="curve" smooth="yes"/>
      <point x="413" y="258"/>
      <point x="415" y="261"/>
      <point x="415" y="268" type="curve" smooth="yes"/>
      <point x="415" y="274"/>
      <point x="414" y="278"/>
    </contour>
  </outline>
</glyph>
<glyph name="uniA4F1" format="2">
  <advance width="474"/>
  <unicode hex="A4F1"/>
  <outline>
    <contour>
      <point x="112" y="254" type="curve" smooth="yes"/>
      <point x="118" y="248"/>
      <point x="130" y="244"/>
      <point x="155" y="244" type="curve" smooth="yes"/>
      <point x="192" y="244"/>
      <point x="232" y="243"/>
      <point x="266" y="243" type="curve" smooth="yes"/>
      <point x="311" y="243"/>
      <point x="353" y="242"/>
      <point x="386" y="242" type="curve" smooth="yes"/>
      <point x="412" y="242"/>
      <point x="429" y="260"/>
      <point x="429" y="271" type="curve" smooth="yes"/>
      <point x="429" y="279"/>
      <point x="423" y="288"/>
      <point x="414" y="292" type="curve" smooth="yes"/>
      <point x="405" y="296"/>
      <point x="394" y="296"/>
      <point x="381" y="296" type="curve" smooth="yes"/>
      <point x="345" y="296"/>
      <point x="316" y="297"/>
      <point x="281" y="297" type="curve" smooth="yes"/>
      <point x="224" y="297"/>
      <point x="183" y="296"/>
      <point x="163" y="296" type="curve" smooth="yes"/>
      <point x="131" y="296"/>
      <point x="121" y="293"/>
      <point x="114" y="289" type="curve" smooth="yes"/>
      <point x="107" y="285"/>
      <point x="104" y="279"/>
      <point x="104" y="271" type="curve" smooth="yes"/>
      <point x="104" y="265"/>
      <point x="106" y="260"/>
    </contour>
    <contour>
      <point x="91" y="50" type="curve" smooth="yes"/>
      <point x="54" y="50"/>
      <point x="31" y="51"/>
      <point x="23" y="51" type="curve" smooth="yes"/>
      <point x="5" y="51"/>
      <point x="-2" y="39"/>
      <point x="-2" y="28" type="curve" smooth="yes"/>
      <point x="-2" y="19"/>
      <point x="6" y="9"/>
      <point x="11" y="5" type="curve" smooth="yes"/>
      <point x="19" y="-1"/>
      <point x="34" y="-8"/>
      <point x="52" y="-8" type="curve" smooth="yes"/>
      <point x="78" y="-8"/>
      <point x="125" y="-7"/>
      <point x="175" y="-7" type="curve" smooth="yes"/>
      <point x="235" y="-7"/>
      <point x="267" y="-6"/>
      <point x="294" y="-6" type="curve" smooth="yes"/>
      <point x="304" y="-6"/>
      <point x="320" y="-7"/>
      <point x="336" y="-7" type="curve" smooth="yes"/>
      <point x="348" y="-7"/>
      <point x="357" y="-5"/>
      <point x="364" y="0" type="curve" smooth="yes"/>
      <point x="371" y="5"/>
      <point x="374" y="12"/>
      <point x="374" y="22" type="curve" smooth="yes"/>
      <point x="374" y="36"/>
      <point x="355" y="51"/>
      <point x="325" y="51" type="curve" smooth="yes"/>
      <point x="263" y="51"/>
      <point x="155" y="50"/>
    </contour>
    <contour>
      <point x="271" y="-5" type="curve" smooth="yes"/>
      <point x="298" y="-5"/>
      <point x="309" y="5"/>
      <point x="314" y="22" type="curve" smooth="yes"/>
      <point x="319" y="38"/>
      <point x="330" y="78"/>
      <point x="339" y="104" type="curve" smooth="yes"/>
      <point x="367" y="185"/>
      <point x="405" y="292"/>
      <point x="429" y="363" type="curve" smooth="yes"/>
      <point x="438" y="388"/>
      <point x="467" y="469"/>
      <point x="467" y="484" type="curve" smooth="yes"/>
      <point x="467" y="493"/>
      <point x="464" y="501"/>
      <point x="459" y="508" type="curve" smooth="yes"/>
      <point x="451" y="519"/>
      <point x="439" y="524"/>
      <point x="427" y="527" type="curve" smooth="yes"/>
      <point x="405" y="532"/>
      <point x="376" y="532"/>
      <point x="352" y="532" type="curve" smooth="yes"/>
      <point x="315" y="532"/>
      <point x="265" y="530"/>
      <point x="239" y="530" type="curve" smooth="yes"/>
      <point x="217" y="530"/>
      <point x="204" y="531"/>
      <point x="173" y="531" type="curve" smooth="yes"/>
      <point x="136" y="531"/>
      <point x="123" y="520"/>
      <point x="123" y="506" type="curve" smooth="yes"/>
      <point x="123" y="501"/>
      <point x="124" y="497"/>
      <point x="126" y="494" type="curve" smooth="yes"/>
      <point x="135" y="480"/>
      <point x="147" y="473"/>
      <point x="194" y="473" type="curve" smooth="yes"/>
      <point x="225" y="473"/>
      <point x="292" y="474"/>
      <point x="322" y="474" type="curve" smooth="yes"/>
      <point x="348" y="474"/>
      <point x="362" y="474"/>
      <point x="372" y="472" type="curve" smooth="yes"/>
      <point x="384" y="470"/>
      <point x="391" y="464"/>
      <point x="391" y="453" type="curve" smooth="yes"/>
      <point x="391" y="443"/>
      <point x="384" y="415"/>
      <point x="379" y="400" type="curve" smooth="yes"/>
      <point x="354" y="327"/>
      <point x="318" y="225"/>
      <point x="288" y="140" type="curve" smooth="yes"/>
      <point x="275" y="104"/>
      <point x="262" y="73"/>
      <point x="249" y="35" type="curve" smooth="yes"/>
      <point x="247" y="29"/>
      <point x="245" y="23"/>
      <point x="245" y="16" type="curve" smooth="yes"/>
      <point x="245" y="8"/>
      <point x="249" y="-5"/>
    </contour>
  </outline>
</glyph>
<glyph name="uniA4F2" format="2">
  <advance width="265"/>
  <unicode hex="A4F2"/>
  <outline>
    <contour>
      <point x="59" y="-9" type="curve" smooth="yes"/>
      <point x="84" y="-9"/>
      <point x="95" y="0"/>
      <point x="100" y="17" type="curve" smooth="yes"/>
      <point x="105" y="33"/>
      <point x="114" y="66"/>
      <point x="126" y="104" type="curve" smooth="yes"/>
      <point x="149" y="177"/>
      <point x="179" y="270"/>
      <point x="215" y="366" type="curve" smooth="yes"/>
      <point x="231" y="409"/>
      <point x="251" y="453"/>
      <point x="265" y="496" type="curve" smooth="yes"/>
      <point x="267" y="502"/>
      <point x="268" y="506"/>
      <point x="268" y="510" type="curve" smooth="yes"/>
      <point x="268" y="521"/>
      <point x="252" y="532"/>
      <point x="233" y="532" type="curve" smooth="yes"/>
      <point x="219" y="532"/>
      <point x="210" y="529"/>
      <point x="205" y="522" type="curve" smooth="yes"/>
      <point x="201" y="517"/>
      <point x="197" y="508"/>
      <point x="195" y="503" type="curve" smooth="yes"/>
      <point x="182" y="470"/>
      <point x="173" y="436"/>
      <point x="162" y="403" type="curve" smooth="yes"/>
      <point x="132" y="313"/>
      <point x="103" y="229"/>
      <point x="71" y="140" type="curve" smooth="yes"/>
      <point x="58" y="104"/>
      <point x="44" y="68"/>
      <point x="31" y="30" type="curve" smooth="yes"/>
      <point x="29" y="24"/>
      <point x="27" y="18"/>
      <point x="27" y="11" type="curve" smooth="yes"/>
      <point x="27" y="3"/>
      <point x="34" y="-9"/>
    </contour>
  </outline>
</glyph>
<glyph name="uniA4F3" format="2">
  <advance width="502"/>
  <unicode hex="A4F3"/>
  <outline>
    <contour>
      <point x="461" y="228" type="curve" smooth="yes"/>
      <point x="482" y="287"/>
      <point x="489" y="330"/>
      <point x="489" y="369" type="curve" smooth="yes"/>
      <point x="489" y="463"/>
      <point x="441" y="538"/>
      <point x="352" y="538" type="curve" smooth="yes"/>
      <point x="221" y="538"/>
      <point x="120" y="428"/>
      <point x="66" y="277" type="curve" smooth="yes"/>
      <point x="52" y="238"/>
      <point x="47" y="198"/>
      <point x="47" y="162" type="curve" smooth="yes"/>
      <point x="47" y="66"/>
      <point x="97" y="-10"/>
      <point x="186" y="-10" type="curve" smooth="yes"/>
      <point x="315" y="-10"/>
      <point x="417" y="104"/>
    </contour>
    <contour>
      <point x="197" y="50" type="curve" smooth="yes"/>
      <point x="141" y="50"/>
      <point x="108" y="96"/>
      <point x="108" y="169" type="curve" smooth="yes"/>
      <point x="108" y="307"/>
      <point x="231" y="478"/>
      <point x="341" y="478" type="curve" smooth="yes"/>
      <point x="396" y="478"/>
      <point x="428" y="434"/>
      <point x="428" y="363" type="curve" smooth="yes"/>
      <point x="428" y="224"/>
      <point x="309" y="50"/>
    </contour>
  </outline>
</glyph>
<glyph name="uniA4F4" format="2">
  <advance width="543"/>
  <unicode hex="A4F4"/>
  <outline>
    <contour>
      <point x="168" y="495" type="curve" smooth="yes"/>
      <point x="146" y="441"/>
      <point x="127" y="381"/>
      <point x="106" y="312" type="curve" smooth="yes"/>
      <point x="86" y="247"/>
      <point x="73" y="191"/>
      <point x="73" y="147" type="curve" smooth="yes"/>
      <point x="73" y="59"/>
      <point x="128" y="-10"/>
      <point x="206" y="-10" type="curve" smooth="yes"/>
      <point x="270" y="-10"/>
      <point x="312" y="11"/>
      <point x="360" y="57" type="curve" smooth="yes"/>
      <point x="400" y="96"/>
      <point x="419" y="133"/>
      <point x="439" y="174" type="curve" smooth="yes"/>
      <point x="468" y="233"/>
      <point x="520" y="350"/>
      <point x="558" y="457" type="curve" smooth="yes"/>
      <point x="564" y="474"/>
      <point x="570" y="492"/>
      <point x="573" y="502" type="curve" smooth="yes"/>
      <point x="574" y="506"/>
      <point x="574" y="509"/>
      <point x="574" y="511" type="curve" smooth="yes"/>
      <point x="574" y="516"/>
      <point x="573" y="521"/>
      <point x="567" y="525" type="curve" smooth="yes"/>
      <point x="560" y="530"/>
      <point x="550" y="532"/>
      <point x="534" y="532" type="curve" smooth="yes"/>
      <point x="526" y="532"/>
      <point x="519" y="530"/>
      <point x="513" y="526" type="curve" smooth="yes"/>
      <point x="506" y="522"/>
      <point x="503" y="515"/>
      <point x="498" y="502" type="curve" smooth="yes"/>
      <point x="495" y="494"/>
      <point x="489" y="472"/>
      <point x="476" y="431" type="curve" smooth="yes"/>
      <point x="456" y="369"/>
      <point x="429" y="300"/>
      <point x="394" y="219" type="curve" smooth="yes"/>
      <point x="353" y="125"/>
      <point x="289" y="50"/>
      <point x="219" y="50" type="curve" smooth="yes"/>
      <point x="164" y="50"/>
      <point x="135" y="94"/>
      <point x="135" y="156" type="curve" smooth="yes"/>
      <point x="135" y="194"/>
      <point x="151" y="254"/>
      <point x="171" y="312" type="curve" smooth="yes"/>
      <point x="195" y="380"/>
      <point x="221" y="437"/>
      <point x="243" y="495" type="curve" smooth="yes"/>
      <point x="246" y="503"/>
      <point x="247" y="508"/>
      <point x="247" y="513" type="curve" smooth="yes"/>
      <point x="247" y="524"/>
      <point x="228" y="532"/>
      <point x="212" y="532" type="curve" smooth="yes"/>
      <point x="205" y="532"/>
      <point x="190" y="531"/>
      <point x="184" y="525" type="curve" smooth="yes"/>
      <point x="180" y="521"/>
      <point x="175" y="512"/>
    </contour>
  </outline>
</glyph>
<glyph name="uniA4F5" format="2">
  <advance width="541"/>
  <unicode hex="A4F5"/>
  <outline>
    <contour>
      <point x="408" y="30" type="curve" smooth="yes"/>
      <point x="427" y="79"/>
      <point x="450" y="147"/>
      <point x="473" y="216" type="curve" smooth="yes"/>
      <point x="495" y="281"/>
      <point x="507" y="342"/>
      <point x="507" y="386" type="curve" smooth="yes"/>
      <point x="507" y="474"/>
      <point x="454" y="538"/>
      <point x="370" y="538" type="curve" smooth="yes"/>
      <point x="308" y="538"/>
      <point x="269" y="520"/>
      <point x="220" y="475" type="curve" smooth="yes"/>
      <point x="178" y="436"/>
      <point x="157" y="395"/>
      <point x="137" y="354" type="curve" smooth="yes"/>
      <point x="108" y="295"/>
      <point x="60" y="172"/>
      <point x="33" y="98" type="curve" smooth="yes"/>
      <point x="23" y="71"/>
      <point x="12" y="45"/>
      <point x="8" y="34" type="curve" smooth="yes"/>
      <point x="4" y="24"/>
      <point x="3" y="16"/>
      <point x="3" y="12" type="curve" smooth="yes"/>
      <point x="3" y="7"/>
      <point x="6" y="1"/>
      <point x="12" y="-3" type="curve" smooth="yes"/>
      <point x="19" y="-7"/>
      <point x="26" y="-9"/>
      <point x="37" y="-9" type="curve" smooth="yes"/>
      <point x="53" y="-9"/>
      <point x="62" y="-6"/>
      <point x="68" y="-1" type="curve" smooth="yes"/>
      <point x="73" y="3"/>
      <point x="77" y="8"/>
      <point x="82" y="21" type="curve" smooth="yes"/>
      <point x="85" y="29"/>
      <point x="90" y="50"/>
      <point x="103" y="91" type="curve" smooth="yes"/>
      <point x="123" y="153"/>
      <point x="164" y="269"/>
      <point x="204" y="349" type="curve" smooth="yes"/>
      <point x="243" y="427"/>
      <point x="291" y="478"/>
      <point x="358" y="478" type="curve" smooth="yes"/>
      <point x="415" y="478"/>
      <point x="445" y="444"/>
      <point x="445" y="378" type="curve" smooth="yes"/>
      <point x="445" y="339"/>
      <point x="426" y="274"/>
      <point x="406" y="216" type="curve" smooth="yes"/>
      <point x="382" y="148"/>
      <point x="354" y="89"/>
      <point x="336" y="41" type="curve" smooth="yes"/>
      <point x="331" y="28"/>
      <point x="328" y="18"/>
      <point x="328" y="13" type="curve" smooth="yes"/>
      <point x="328" y="2"/>
      <point x="340" y="-9"/>
      <point x="362" y="-9" type="curve" smooth="yes"/>
      <point x="375" y="-9"/>
      <point x="388" y="-5"/>
      <point x="393" y="1" type="curve" smooth="yes"/>
      <point x="397" y="5"/>
      <point x="401" y="13"/>
    </contour>
  </outline>
</glyph>
<glyph name="uniA4F9" format="2">
  <advance width="167"/>
  <unicode hex="A4F9"/>
  <outline>
    <contour>
      <point x="-52" y="-79" type="curve" smooth="yes"/>
      <point x="-26" y="-79"/>
      <point x="11" y="-57"/>
      <point x="35" y="-28" type="curve" smooth="yes"/>
      <point x="58" y="-1"/>
      <point x="87" y="51"/>
      <point x="87" y="87" type="curve" smooth="yes"/>
      <point x="87" y="99"/>
      <point x="74" y="108"/>
      <point x="54" y="108" type="curve" smooth="yes"/>
      <point x="35" y="108"/>
      <point x="18" y="104"/>
      <point x="12" y="87" type="curve" smooth="yes"/>
      <point x="8" y="76"/>
      <point x="6" y="65"/>
      <point x="2" y="52" type="curve" smooth="yes"/>
      <point x="-16" y="-7"/>
      <point x="-40" y="-34"/>
      <point x="-62" y="-56" type="curve" smooth="yes"/>
      <point x="-69" y="-63"/>
      <point x="-71" y="-69"/>
      <point x="-71" y="-72" type="curve" smooth="yes"/>
      <point x="-71" y="-77"/>
      <point x="-64" y="-79"/>
    </contour>
  </outline>
</glyph>
<glyph name="uniA4FD" format="2">
  <advance width="239"/>
  <unicode hex="A4FD"/>
  <outline>
    <contour>
      <point x="88" y="65" type="curve" smooth="yes"/>
      <point x="88" y="86"/>
      <point x="74" y="103"/>
      <point x="50" y="103" type="curve" smooth="yes"/>
      <point x="13" y="103"/>
      <point x="-15" y="65"/>
      <point x="-15" y="31" type="curve" smooth="yes"/>
      <point x="-15" y="10"/>
      <point x="-1" y="-7"/>
      <point x="23" y="-7" type="curve" smooth="yes"/>
      <point x="60" y="-7"/>
      <point x="88" y="31"/>
    </contour>
    <contour>
      <point x="167" y="285" type="curve" smooth="yes"/>
      <point x="167" y="306"/>
      <point x="153" y="323"/>
      <point x="129" y="323" type="curve" smooth="yes"/>
      <point x="92" y="323"/>
      <point x="64" y="285"/>
      <point x="64" y="251" type="curve" smooth="yes"/>
      <point x="64" y="230"/>
      <point x="78" y="213"/>
      <point x="102" y="213" type="curve" smooth="yes"/>
      <point x="139" y="213"/>
      <point x="167" y="251"/>
    </contour>
  </outline>
</glyph>
<glyph name="u11FB0" format="2">
  <advance width="485"/>
  <unicode hex="11FB0"/>
  <outline>
    <contour>
      <point x="344" y="532" type="curve" smooth="yes"/>
      <point x="364" y="532"/>
      <point x="374" y="525"/>
      <point x="374" y="514" type="curve" smooth="yes"/>
      <point x="374" y="505"/>
      <point x="369" y="490"/>
      <point x="361" y="470" type="curve" smooth="yes"/>
      <point x="350" y="442"/>
      <point x="305" y="329"/>
      <point x="282" y="275" type="curve"/>
      <point x="236" y="235"/>
      <point x="119" y="131"/>
      <point x="41" y="33" type="curve" smooth="yes"/>
      <point x="30" y="19"/>
      <point x="19" y="5"/>
      <point x="10" y="-2" type="curve" smooth="yes"/>
      <point x="3" y="-8"/>
      <point x="-7" y="-10"/>
      <point x="-19" y="-10" type="curve" smooth="yes"/>
      <point x="-43" y="-10"/>
      <point x="-50" y="0"/>
      <point x="-50" y="11" type="curve" smooth="yes"/>
      <point x="-50" y="22"/>
      <point x="-33" y="44"/>
      <point x="-19" y="61" type="curve" smooth="yes"/>
      <point x="33" y="123"/>
      <point x="125" y="213"/>
      <point x="185" y="269" type="curve" smooth="yes"/>
      <point x="212" y="295"/>
      <point x="228" y="307"/>
      <point x="232" y="314" type="curve" smooth="yes"/>
      <point x="258" y="361"/>
      <point x="278" y="442"/>
      <point x="303" y="504" type="curve" smooth="yes"/>
      <point x="311" y="524"/>
      <point x="323" y="532"/>
    </contour>
    <contour>
      <point x="273" y="322" type="curve" smooth="yes"/>
      <point x="281" y="322"/>
      <point x="291" y="316"/>
      <point x="293" y="310" type="curve" smooth="yes"/>
      <point x="295" y="305"/>
      <point x="300" y="284"/>
      <point x="310" y="258" type="curve" smooth="yes"/>
      <point x="341" y="181"/>
      <point x="364" y="112"/>
      <point x="376" y="68" type="curve" smooth="yes"/>
      <point x="383" y="44"/>
      <point x="387" y="25"/>
      <point x="387" y="15" type="curve" smooth="yes"/>
      <point x="387" y="-2"/>
      <point x="370" y="-10"/>
      <point x="351" y="-10" type="curve" smooth="yes"/>
      <point x="333" y="-10"/>
      <point x="328" y="-2"/>
      <point x="326" y="6" type="curve" smooth="yes"/>
      <point x="322" y="19"/>
      <point x="321" y="32"/>
      <point x="316" y="49" type="curve" smooth="yes"/>
      <point x="301" y="106"/>
      <point x="286" y="151"/>
      <point x="260" y="216" type="curve" smooth="yes"/>
      <point x="250" y="240"/>
      <point x="241" y="266"/>
      <point x="241" y="279" type="curve" smooth="yes"/>
      <point x="241" y="305"/>
      <point x="264" y="322"/>
    </contour>
  </outline>
</glyph>
<glyph name=".notdef" format="2">
  <advance width="1000"/>
  <outline>
    <contour>
      <point x="745" y="45" type="line"/>
      <point x="745" y="694" type="line"/>
      <point x="295" y="694" type="line"/>
      <point x="295" y="45" type="line"/>
    </contour>
    <contour>
      <point x="790" y="0" type="line"/>
      <point x="250" y="0" type="line"/>
      <point x="250" y="739" type="line"/>
      <point x="790" y="739" type="line"/>
    </contour>
  </outline>
</glyph>
